<svg version="1.1" viewBox="0.0 0.0 960.0 540.0" fill="none" stroke="none" stroke-linecap="square" stroke-miterlimit="10" xmlns:xlink="http://www.w3.org/1999/xlink" xmlns="http://www.w3.org/2000/svg"><clipPath id="g313bb6f344d_0_260.0"><path d="m0 0l960.0 0l0 540.0l-960.0 0l0 -540.0z" clip-rule="nonzero"/></clipPath><g clip-path="url(#g313bb6f344d_0_260.0)"><path fill="#ffffff" d="m0 0l960.0 0l0 540.0l-960.0 0z" fill-rule="evenodd"/><path fill="#4a86e8" d="m374.35965 241.55113l192.47244 0l0 76.7874l-192.47244 0z" fill-rule="evenodd"/><path stroke="#ffffff" stroke-width="1.0" stroke-linejoin="round" stroke-linecap="butt" d="m374.35965 241.55113l192.47244 0l0 76.7874l-192.47244 0z" fill-rule="evenodd"/><path fill="#ffffff" d="m404.4493 289.54483l0 -19.078125l3.796875 0l4.515625 13.5q0.625 1.890625 0.90625 2.828125q0.328125 -1.03125 1.015625 -3.0625l4.578125 -13.265625l3.390625 0l0 19.078125l-2.4375 0l0 -15.96875l-5.546875 15.96875l-2.265625 0l-5.53125 -16.25l0 16.25l-2.421875 0zm31.03299 0l0 -2.03125q-1.609375 2.34375 -4.375 2.34375q-1.234375 0 -2.296875 -0.46875q-1.0625 -0.46875 -1.578125 -1.171875q-0.5 -0.71875 -0.71875 -1.75q-0.140625 -0.6875 -0.140625 -2.1875l0 -8.5625l2.34375 0l0 7.671875q0 1.828125 0.140625 2.46875q0.21875 0.921875 0.9375 1.453125q0.71875 0.53125 1.765625 0.53125q1.0625 0 1.984375 -0.53125q0.921875 -0.546875 1.296875 -1.46875q0.390625 -0.9375 0.390625 -2.71875l0 -7.40625l2.34375 0l0 13.828125l-2.09375 0zm5.7155457 0l0 -19.078125l2.34375 0l0 19.078125l-2.34375 0zm11.094055 -2.09375l0.328125 2.0625q-0.984375 0.21875 -1.765625 0.21875q-1.265625 0 -1.96875 -0.40625q-0.703125 -0.40625 -1.0 -1.0625q-0.28125 -0.65625 -0.28125 -2.765625l0 -7.953125l-1.71875 0l0 -1.828125l1.71875 0l0 -3.421875l2.328125 -1.40625l0 4.828125l2.359375 0l0 1.828125l-2.359375 0l0 8.078125q0 1.0 0.125 1.296875q0.125 0.28125 0.40625 0.453125q0.28125 0.171875 0.796875 0.171875q0.390625 0 1.03125 -0.09375zm2.2965698 -14.296875l0 -2.6875l2.34375 0l0 2.6875l-2.34375 0zm0 16.390625l0 -13.828125l2.34375 0l0 13.828125l-2.34375 0zm5.000305 -5.734375l0 -2.34375l7.203125 0l0 2.34375l-7.203125 0zm22.611115 -13.34375l2.53125 0l0 11.015625q0 2.875 -0.65625 4.578125q-0.65625 1.6875 -2.359375 2.75q-1.6875 1.0625 -4.453125 1.0625q-2.671875 0 -4.390625 -0.921875q-1.703125 -0.921875 -2.4375 -2.671875q-0.71875 -1.765625 -0.71875 -4.796875l0 -11.015625l2.53125 0l0 11.015625q0 2.484375 0.453125 3.65625q0.46875 1.171875 1.59375 1.8125q1.125 0.640625 2.75 0.640625q2.78125 0 3.96875 -1.265625q1.1875 -1.265625 1.1875 -4.84375l0 -11.015625zm5.4846497 14.953125l2.328125 -0.359375q0.1875 1.390625 1.078125 2.140625q0.890625 0.734375 2.5 0.734375q1.609375 0 2.390625 -0.65625q0.78125 -0.65625 0.78125 -1.546875q0 -0.796875 -0.6875 -1.25q-0.484375 -0.3125 -2.390625 -0.796875q-2.578125 -0.65625 -3.578125 -1.125q-1.0 -0.46875 -1.515625 -1.3125q-0.515625 -0.84375 -0.515625 -1.859375q0 -0.921875 0.421875 -1.703125q0.4375 -0.796875 1.15625 -1.3125q0.546875 -0.40625 1.484375 -0.6875q0.953125 -0.28125 2.03125 -0.28125q1.625 0 2.859375 0.46875q1.234375 0.46875 1.8125 1.28125q0.59375 0.796875 0.8125 2.140625l-2.296875 0.3125q-0.15625 -1.078125 -0.90625 -1.671875q-0.75 -0.59375 -2.109375 -0.59375q-1.609375 0 -2.3125 0.53125q-0.6875 0.53125 -0.6875 1.25q0 0.453125 0.296875 0.8125q0.28125 0.375 0.890625 0.625q0.359375 0.140625 2.078125 0.609375q2.484375 0.65625 3.46875 1.078125q0.984375 0.421875 1.53125 1.234375q0.5625 0.796875 0.5625 2.0q0 1.171875 -0.6875 2.21875q-0.671875 1.03125 -1.96875 1.59375q-1.28125 0.5625 -2.90625 0.5625q-2.703125 0 -4.125 -1.109375q-1.40625 -1.125 -1.796875 -3.328125zm23.734406 -0.328125l2.421875 0.296875q-0.578125 2.125 -2.125 3.296875q-1.546875 1.171875 -3.953125 1.171875q-3.03125 0 -4.8125 -1.859375q-1.7812805 -1.875 -1.7812805 -5.25q0 -3.484375 1.7969055 -5.40625q1.796875 -1.9375 4.671875 -1.9375q2.765625 0 4.515625 1.890625q1.765625 1.890625 1.765625 5.3125q0 0.203125 -0.015625 0.625l-10.3125 0q0.140625 2.28125 1.296875 3.5q1.15625 1.203125 2.890625 1.203125q1.28125 0 2.1875 -0.671875q0.921875 -0.6875 1.453125 -2.171875zm-7.6875 -3.78125l7.71875 0q-0.15625 -1.75 -0.890625 -2.625q-1.125 -1.34375 -2.90625 -1.34375q-1.609375 0 -2.71875 1.078125q-1.09375 1.078125 -1.203125 2.890625zm13.028015 8.234375l0 -13.828125l2.109375 0l0 2.09375q0.796875 -1.46875 1.484375 -1.9375q0.6875 -0.46875 1.5 -0.46875q1.1875 0 2.40625 0.765625l-0.796875 2.171875q-0.859375 -0.515625 -1.71875 -0.515625q-0.765625 0 -1.390625 0.46875q-0.609375 0.453125 -0.859375 1.28125q-0.390625 1.25 -0.390625 2.734375l0 7.234375l-2.34375 0zm13.28302 -4.703125q-0.015625 -0.46875 -0.015625 -0.703125q0 -1.375 0.390625 -2.375q0.296875 -0.75 0.921875 -1.53125q0.46875 -0.546875 1.6875 -1.625q1.21875 -1.078125 1.578125 -1.71875q0.375 -0.640625 0.375 -1.390625q0 -1.359375 -1.078125 -2.390625q-1.0625 -1.046875 -2.609375 -1.046875q-1.5 0 -2.5 0.9375q-1.0 0.9375 -1.3125 2.9375l-2.40625 -0.296875q0.328125 -2.65625 1.9375 -4.078125q1.609375 -1.421875 4.25 -1.421875q2.796875 0 4.453125 1.53125q1.671875 1.515625 1.671875 3.671875q0 1.25 -0.59375 2.3125q-0.578125 1.046875 -2.28125 2.5625q-1.140625 1.015625 -1.5 1.5q-0.34375 0.46875 -0.515625 1.09375q-0.171875 0.625 -0.203125 2.03125l-2.25 0zm-0.140625 4.703125l0 -2.671875l2.671875 0l0 2.671875l-2.671875 0z" fill-rule="nonzero"/><path fill="#bf9000" d="m182.35909 139.1979l192.00002 0l0 76.7874l-192.00002 0z" fill-rule="evenodd"/><path stroke="#ffffff" stroke-width="1.0" stroke-linejoin="round" stroke-linecap="butt" d="m182.35909 139.1979l192.00002 0l0 76.7874l-192.00002 0z" fill-rule="evenodd"/><path fill="#ffffff" d="m216.72774 187.1916l0 -19.078125l8.46875 0q2.546875 0 3.875 0.515625q1.328125 0.515625 2.109375 1.8125q0.796875 1.296875 0.796875 2.875q0 2.03125 -1.3125 3.421875q-1.3125 1.390625 -4.0625 1.765625q1.015625 0.484375 1.53125 0.953125q1.109375 1.015625 2.09375 2.546875l3.3125 5.1875l-3.171875 0l-2.515625 -3.96875q-1.109375 -1.71875 -1.828125 -2.625q-0.71875 -0.921875 -1.28125 -1.28125q-0.5625 -0.359375 -1.15625 -0.5q-0.421875 -0.09375 -1.40625 -0.09375l-2.921875 0l0 8.46875l-2.53125 0zm2.53125 -10.65625l5.421875 0q1.734375 0 2.703125 -0.359375q0.984375 -0.359375 1.484375 -1.140625q0.515625 -0.796875 0.515625 -1.71875q0 -1.359375 -0.984375 -2.21875q-0.984375 -0.875 -3.109375 -0.875l-6.03125 0l0 6.3125zm25.84404 6.203125l2.421875 0.296875q-0.578125 2.125 -2.125 3.296875q-1.546875 1.171875 -3.953125 1.171875q-3.03125 0 -4.8125 -1.859375q-1.78125 -1.875 -1.78125 -5.25q0 -3.484375 1.796875 -5.40625q1.796875 -1.9375 4.671875 -1.9375q2.765625 0 4.515625 1.890625q1.765625 1.890625 1.765625 5.3125q0 0.203125 -0.015625 0.625l-10.3125 0q0.140625 2.28125 1.296875 3.5q1.15625 1.203125 2.890625 1.203125q1.28125 0 2.1875 -0.671875q0.921875 -0.6875 1.453125 -2.171875zm-7.6875 -3.78125l7.71875 0q-0.15625 -1.75 -0.890625 -2.625q-1.125 -1.34375 -2.90625 -1.34375q-1.609375 0 -2.71875 1.078125q-1.09375 1.078125 -1.203125 2.890625zm22.106201 8.234375l0 -2.03125q-1.609375 2.34375 -4.3750153 2.34375q-1.234375 0 -2.296875 -0.46875q-1.0625 -0.46875 -1.578125 -1.171875q-0.5 -0.71875 -0.71875 -1.75q-0.140625 -0.6875 -0.140625 -2.1875l0 -8.5625l2.34375 0l0 7.671875q0 1.828125 0.140625 2.46875q0.21875 0.921875 0.9375 1.453125q0.71875 0.53125 1.765625 0.53125q1.0625153 0 1.9843903 -0.53125q0.921875 -0.546875 1.296875 -1.46875q0.390625 -0.9375 0.390625 -2.71875l0 -7.40625l2.34375 0l0 13.828125l-2.09375 0zm4.8249207 -4.125l2.328125 -0.359375q0.1875 1.390625 1.078125 2.140625q0.890625 0.734375 2.5 0.734375q1.609375 0 2.390625 -0.65625q0.78125 -0.65625 0.78125 -1.546875q0 -0.796875 -0.6875 -1.25q-0.484375 -0.3125 -2.390625 -0.796875q-2.578125 -0.65625 -3.578125 -1.125q-1.0 -0.46875 -1.515625 -1.3125q-0.515625 -0.84375 -0.515625 -1.859375q0 -0.921875 0.421875 -1.703125q0.4375 -0.796875 1.15625 -1.3125q0.546875 -0.40625 1.484375 -0.6875q0.953125 -0.28125 2.03125 -0.28125q1.625 0 2.859375 0.46875q1.234375 0.46875 1.8125 1.28125q0.59375 0.796875 0.8125 2.140625l-2.296875 0.3125q-0.15625 -1.078125 -0.90625 -1.671875q-0.75 -0.59375 -2.109375 -0.59375q-1.609375 0 -2.3125 0.53125q-0.6875 0.53125 -0.6875 1.25q0 0.453125 0.296875 0.8125q0.28125 0.375 0.890625 0.625q0.359375 0.140625 2.078125 0.609375q2.484375 0.65625 3.46875 1.078125q0.984375 0.421875 1.53125 1.234375q0.5625 0.796875 0.5625 2.0q0 1.171875 -0.6875 2.21875q-0.671875 1.03125 -1.96875 1.59375q-1.28125 0.5625 -2.90625 0.5625q-2.703125 0 -4.125 -1.109375q-1.40625 -1.125 -1.796875 -3.328125zm23.296875 2.421875q-1.3125 1.109375 -2.515625 1.5625q-1.203125 0.453125 -2.578125 0.453125q-2.28125 0 -3.5 -1.109375q-1.21875 -1.109375 -1.21875 -2.84375q0 -1.015625 0.453125 -1.859375q0.46875 -0.84375 1.21875 -1.34375q0.75 -0.515625 1.6875 -0.765625q0.6875 -0.1875 2.078125 -0.359375q2.828125 -0.328125 4.171875 -0.796875q0.015625 -0.484375 0.015625 -0.625q0 -1.421875 -0.65625 -2.015625q-0.90625 -0.796875 -2.671875 -0.796875q-1.65625 0 -2.453125 0.59375q-0.78125 0.578125 -1.15625 2.046875l-2.296875 -0.3125q0.3125 -1.46875 1.03125 -2.375q0.71875 -0.90625 2.0625 -1.390625q1.359375 -0.5 3.140625 -0.5q1.78125 0 2.875 0.421875q1.109375 0.421875 1.625 1.046875q0.53125 0.625 0.734375 1.59375q0.125 0.59375 0.125 2.15625l0 3.125q0 3.265625 0.140625 4.140625q0.15625 0.859375 0.59375 1.65625l-2.4375 0q-0.375 -0.734375 -0.46875 -1.703125zm-0.203125 -5.234375q-1.265625 0.515625 -3.828125 0.890625q-1.4375 0.203125 -2.046875 0.46875q-0.59375 0.25 -0.921875 0.75q-0.3125 0.5 -0.3125 1.125q0 0.9375 0.703125 1.5625q0.703125 0.625 2.078125 0.625q1.34375 0 2.390625 -0.59375q1.0625 -0.59375 1.5625 -1.625q0.375 -0.796875 0.375 -2.34375l0 -0.859375zm8.168701 6.9375l-2.171875 0l0 -19.078125l2.34375 0l0 6.796875q1.484375 -1.859375 3.78125 -1.859375q1.28125 0 2.40625 0.515625q1.140625 0.515625 1.875 1.453125q0.75 0.921875 1.15625 2.25q0.421875 1.3125 0.421875 2.796875q0 3.5625 -1.765625 5.5q-1.75 1.9375 -4.21875 1.9375q-2.4375 0 -3.828125 -2.046875l0 1.734375zm-0.03125 -7.015625q0 2.484375 0.671875 3.59375q1.109375 1.8125 3.0 1.8125q1.53125 0 2.65625 -1.328125q1.125 -1.34375 1.125 -3.984375q0 -2.703125 -1.078125 -3.984375q-1.078125 -1.296875 -2.59375 -1.296875q-1.546875 0 -2.671875 1.328125q-1.109375 1.328125 -1.109375 3.859375zm12.637421 7.015625l0 -19.078125l2.34375 0l0 19.078125l-2.34375 0zm15.437805 -4.453125l2.421875 0.296875q-0.578125 2.125 -2.125 3.296875q-1.546875 1.171875 -3.953125 1.171875q-3.03125 0 -4.8125 -1.859375q-1.78125 -1.875 -1.78125 -5.25q0 -3.484375 1.796875 -5.40625q1.796875 -1.9375 4.671875 -1.9375q2.765625 0 4.515625 1.890625q1.765625 1.890625 1.765625 5.3125q0 0.203125 -0.015625 0.625l-10.3125 0q0.140625 2.28125 1.296875 3.5q1.15625 1.203125 2.890625 1.203125q1.28125 0 2.1875 -0.671875q0.921875 -0.6875 1.453125 -2.171875zm-7.6875 -3.78125l7.71875 0q-0.15625 -1.75 -0.890625 -2.625q-1.125 -1.34375 -2.90625 -1.34375q-1.609375 0 -2.71875 1.078125q-1.09375 1.078125 -1.203125 2.890625zm17.434296 3.53125q-0.015625 -0.46875 -0.015625 -0.703125q0 -1.375 0.390625 -2.375q0.296875 -0.75 0.921875 -1.53125q0.46875 -0.546875 1.6875 -1.625q1.21875 -1.078125 1.578125 -1.71875q0.375 -0.640625 0.375 -1.390625q0 -1.359375 -1.078125 -2.390625q-1.0625 -1.046875 -2.609375 -1.046875q-1.5 0 -2.5 0.9375q-1.0 0.9375 -1.3125 2.9375l-2.40625 -0.296875q0.328125 -2.65625 1.9375 -4.078125q1.609375 -1.421875 4.25 -1.421875q2.796875 0 4.453125 1.53125q1.671875 1.515625 1.671875 3.671875q0 1.25 -0.59375 2.3125q-0.578125 1.046875 -2.28125 2.5625q-1.140625 1.015625 -1.5 1.5q-0.34375 0.46875 -0.515625 1.09375q-0.171875 0.625 -0.203125 2.03125l-2.25 0zm-0.140625 4.703125l0 -2.671875l2.671875 0l0 2.671875l-2.671875 0z" fill-rule="nonzero"/><path fill="#38761d" d="m631.0097 328.7438l192.0 0l0 76.787415l-192.0 0z" fill-rule="evenodd"/><path stroke="#ffffff" stroke-width="1.0" stroke-linejoin="round" stroke-linecap="butt" d="m631.0097 328.7438l192.0 0l0 76.787415l-192.0 0z" fill-rule="evenodd"/><path fill="#ffffff" d="m667.87354 370.05002l2.53125 0.640625q-0.796875 3.109375 -2.859375 4.75q-2.0625 1.625 -5.046875 1.625q-3.09375 0 -5.03125 -1.25q-1.921875 -1.265625 -2.9375 -3.640625q-1.0 -2.390625 -1.0 -5.125q0 -2.984375 1.140625 -5.203125q1.140625 -2.21875 3.234375 -3.359375q2.109375 -1.15625 4.625 -1.15625q2.875 0 4.828125 1.46875q1.953125 1.453125 2.71875 4.09375l-2.484375 0.578125q-0.671875 -2.078125 -1.9375 -3.03125q-1.25 -0.953125 -3.171875 -0.953125q-2.203125 0 -3.6875 1.0625q-1.46875 1.046875 -2.0625 2.828125q-0.59375 1.78125 -0.59375 3.65625q0 2.4375 0.703125 4.265625q0.703125 1.8125 2.203125 2.71875q1.5 0.890625 3.25 0.890625q2.109375 0 3.578125 -1.21875q1.484375 -1.234375 2.0 -3.640625zm4.469055 -0.21875q0 -3.84375 2.125 -5.6875q1.78125 -1.546875 4.34375 -1.546875q2.859375 0 4.65625 1.875q1.8125 1.859375 1.8125 5.15625q0 2.671875 -0.796875 4.203125q-0.796875 1.53125 -2.328125 2.375q-1.53125 0.84375 -3.34375 0.84375q-2.890625 0 -4.6875 -1.859375q-1.78125 -1.859375 -1.78125 -5.359375zm2.40625 0q0 2.65625 1.15625 3.984375q1.15625 1.3125 2.90625 1.3125q1.75 0 2.90625 -1.328125q1.15625 -1.328125 1.15625 -4.046875q0 -2.5625 -1.171875 -3.890625q-1.15625 -1.328125 -2.890625 -1.328125q-1.75 0 -2.90625 1.328125q-1.15625 1.3125 -1.15625 3.96875zm13.278076 6.90625l0 -13.828125l2.109375 0l0 1.9375q0.640625 -1.015625 1.71875 -1.625q1.09375 -0.625 2.46875 -0.625q1.53125 0 2.515625 0.640625q0.984375 0.640625 1.390625 1.78125q1.640625 -2.421875 4.265625 -2.421875q2.0625 0 3.15625 1.140625q1.109375 1.140625 1.109375 3.515625l0 9.484375l-2.328125 0l0 -8.703125q0 -1.40625 -0.234375 -2.015625q-0.21875 -0.625 -0.828125 -1.0q-0.59375 -0.390625 -1.390625 -0.390625q-1.46875 0 -2.4375 0.96875q-0.953125 0.96875 -0.953125 3.109375l0 8.03125l-2.34375 0l0 -8.984375q0 -1.5625 -0.578125 -2.34375q-0.5625 -0.78125 -1.875 -0.78125q-0.984375 0 -1.828125 0.53125q-0.828125 0.515625 -1.21875 1.515625q-0.375 1.0 -0.375 2.890625l0 7.171875l-2.34375 0zm22.204834 0l0 -13.828125l2.109375 0l0 1.9375q0.640625 -1.015625 1.71875 -1.625q1.09375 -0.625 2.46875 -0.625q1.53125 0 2.515625 0.640625q0.984375 0.640625 1.390625 1.78125q1.640625 -2.421875 4.265625 -2.421875q2.0625 0 3.15625 1.140625q1.109375 1.140625 1.109375 3.515625l0 9.484375l-2.328125 0l0 -8.703125q0 -1.40625 -0.234375 -2.015625q-0.21875 -0.625 -0.828125 -1.0q-0.59375 -0.390625 -1.390625 -0.390625q-1.46875 0 -2.4375 0.96875q-0.953125 0.96875 -0.953125 3.109375l0 8.03125l-2.34375 0l0 -8.984375q0 -1.5625 -0.578125 -2.34375q-0.5625 -0.78125 -1.875 -0.78125q-0.984375 0 -1.828125 0.53125q-0.828125 0.515625 -1.21875 1.515625q-0.375 1.0 -0.375 2.890625l0 7.171875l-2.34375 0zm31.267395 0l0 -2.03125q-1.609375 2.34375 -4.375 2.34375q-1.234375 0 -2.296875 -0.46875q-1.0625 -0.46875 -1.578125 -1.171875q-0.5 -0.71875 -0.71875 -1.75q-0.140625 -0.6875 -0.140625 -2.1875l0 -8.5625l2.34375 0l0 7.671875q0 1.828125 0.140625 2.46875q0.21875 0.921875 0.9375 1.453125q0.71875 0.53125 1.765625 0.53125q1.0625 0 1.984375 -0.53125q0.921875 -0.546875 1.296875 -1.46875q0.390625 -0.9375 0.390625 -2.71875l0 -7.40625l2.34375 0l0 13.828125l-2.09375 0zm5.762451 0l0 -13.828125l2.109375 0l0 1.96875q1.53125 -2.28125 4.40625 -2.28125q1.25 0 2.296875 0.453125q1.046875 0.453125 1.5625 1.1875q0.53125 0.71875 0.734375 1.71875q0.125 0.65625 0.125 2.28125l0 8.5l-2.34375 0l0 -8.40625q0 -1.4375 -0.28125 -2.140625q-0.265625 -0.71875 -0.96875 -1.140625q-0.6875 -0.421875 -1.625 -0.421875q-1.484375 0 -2.578125 0.953125q-1.09375 0.953125 -1.09375 3.609375l0 7.546875l-2.34375 0zm14.840515 -16.390625l0 -2.6875l2.34375 0l0 2.6875l-2.34375 0zm0 16.390625l0 -13.828125l2.34375 0l0 13.828125l-2.34375 0zm11.031555 -2.09375l0.328125 2.0625q-0.984375 0.21875 -1.765625 0.21875q-1.265625 0 -1.96875 -0.40625q-0.703125 -0.40625 -1.0 -1.0625q-0.28125 -0.65625 -0.28125 -2.765625l0 -7.953125l-1.71875 0l0 -1.828125l1.71875 0l0 -3.421875l2.328125 -1.40625l0 4.828125l2.359375 0l0 1.828125l-2.359375 0l0 8.078125q0 1.0 0.125 1.296875q0.125 0.28125 0.40625 0.453125q0.28125 0.171875 0.796875 0.171875q0.390625 0 1.03125 -0.09375zm2.1871948 7.421875l-0.265625 -2.203125q0.765625 0.203125 1.34375 0.203125q0.78125 0 1.25 -0.265625q0.46875 -0.25 0.765625 -0.71875q0.21875 -0.359375 0.71875 -1.75q0.0625 -0.1875 0.203125 -0.5625l-5.25 -13.859375l2.53125 0l2.875 8.015625q0.5625 1.515625 1.0 3.203125q0.40625 -1.625 0.96875 -3.15625l2.953125 -8.0625l2.34375 0l-5.265625 14.0625q-0.84375 2.28125 -1.3125 3.140625q-0.625 1.15625 -1.4375 1.6875q-0.796875 0.546875 -1.921875 0.546875q-0.671875 0 -1.5 -0.28125zm17.8125 -10.03125q-0.015625 -0.46875 -0.015625 -0.703125q0 -1.375 0.390625 -2.375q0.296875 -0.75 0.921875 -1.53125q0.46875 -0.546875 1.6875 -1.625q1.21875 -1.078125 1.578125 -1.71875q0.375 -0.640625 0.375 -1.390625q0 -1.359375 -1.078125 -2.390625q-1.0625 -1.046875 -2.609375 -1.046875q-1.5 0 -2.5 0.9375q-1.0 0.9375 -1.3125 2.9375l-2.40625 -0.296875q0.328125 -2.65625 1.9375 -4.078125q1.609375 -1.421875 4.25 -1.421875q2.796875 0 4.453125 1.53125q1.671875 1.515625 1.671875 3.671875q0 1.25 -0.59375 2.3125q-0.578125 1.046875 -2.28125 2.5625q-1.140625 1.015625 -1.5 1.5q-0.34375 0.46875 -0.515625 1.09375q-0.171875 0.625 -0.203125 2.03125l-2.25 0zm-0.140625 4.703125l0 -2.671875l2.671875 0l0 2.671875l-2.671875 0z" fill-rule="nonzero"/><path fill="#e69138" d="m182.35957 10.671604l192.00002 0l0 76.7874l-192.00002 0z" fill-rule="evenodd"/><path stroke="#ffffff" stroke-width="1.0" stroke-linejoin="round" stroke-linecap="butt" d="m182.35957 10.671604l192.00002 0l0 76.7874l-192.00002 0z" fill-rule="evenodd"/><path fill="#ffffff" d="m236.7087 58.665302l0 -19.078125l7.1875 0q1.90625 0 2.90625 0.171875q1.40625 0.234375 2.359375 0.90625q0.953125 0.65625 1.53125 1.84375q0.578125 1.171875 0.578125 2.59375q0 2.4375 -1.5625 4.125q-1.546875 1.6875 -5.59375 1.6875l-4.890625 0l0 7.75l-2.515625 0zm2.515625 -10.015625l4.9375 0q2.453125 0 3.46875 -0.90625q1.03125 -0.90625 1.03125 -2.5625q0 -1.203125 -0.609375 -2.046875q-0.59375 -0.859375 -1.59375 -1.125q-0.625 -0.171875 -2.34375 -0.171875l-4.890625 0l0 6.8125zm24.01387 10.015625l0 -2.03125q-1.609375 2.34375 -4.375 2.34375q-1.234375 0 -2.296875 -0.46875q-1.0624847 -0.46875 -1.5781097 -1.171875q-0.5 -0.71875 -0.71875 -1.75q-0.140625 -0.6875 -0.140625 -2.1875l0 -8.5625l2.3437347 0l0 7.671875q0 1.828125 0.140625 2.46875q0.21875 0.921875 0.9375 1.453125q0.71875 0.53125 1.765625 0.53125q1.0625 0 1.984375 -0.53125q0.921875 -0.546875 1.296875 -1.46875q0.390625 -0.9375 0.390625 -2.71875l0 -7.40625l2.34375 0l0 13.828125l-2.09375 0zm7.934326 0l-2.171875 0l0 -19.078125l2.34375 0l0 6.796875q1.484375 -1.859375 3.78125 -1.859375q1.28125 0 2.40625 0.515625q1.140625 0.515625 1.875 1.453125q0.75 0.921875 1.15625 2.25q0.421875 1.3125 0.421875 2.796875q0 3.5625 -1.765625 5.5q-1.75 1.9375 -4.21875 1.9375q-2.4375 0 -3.828125 -2.046875l0 1.734375zm-0.03125 -7.015625q0 2.484375 0.671875 3.59375q1.109375 1.8125 3.0 1.8125q1.53125 0 2.65625 -1.328125q1.125 -1.34375 1.125 -3.984375q0 -2.703125 -1.078125 -3.984375q-1.078125 -1.296875 -2.59375 -1.296875q-1.546875 0 -2.671875 1.328125q-1.109375 1.328125 -1.109375 3.859375zm12.637421 7.015625l0 -19.078125l2.34375 0l0 19.078125l-2.34375 0zm5.98468 -16.390625l0 -2.6875l2.34375 0l0 2.6875l-2.34375 0zm0 16.390625l0 -13.828125l2.34375 0l0 13.828125l-2.34375 0zm14.937775 -5.0625l2.296875 0.296875q-0.375 2.390625 -1.9375 3.734375q-1.546875 1.34375 -3.8125 1.34375q-2.84375 0 -4.5625 -1.84375q-1.71875 -1.859375 -1.71875 -5.328125q0 -2.234375 0.734375 -3.90625q0.75 -1.6875 2.265625 -2.53125q1.515625 -0.84375 3.296875 -0.84375q2.25 0 3.671875 1.140625q1.4375 1.140625 1.84375 3.234375l-2.28125 0.359375q-0.328125 -1.390625 -1.15625 -2.09375q-0.8125 -0.703125 -1.984375 -0.703125q-1.78125 0 -2.890625 1.265625q-1.09375 1.265625 -1.09375 4.015625q0 2.78125 1.0625 4.046875q1.0625 1.265625 2.78125 1.265625q1.390625 0 2.3125 -0.84375q0.921875 -0.859375 1.171875 -2.609375zm8.6875305 0.359375q-0.015625 -0.46875 -0.015625 -0.703125q0 -1.375 0.390625 -2.375q0.296875 -0.75 0.921875 -1.53125q0.46875 -0.546875 1.6875 -1.625q1.21875 -1.078125 1.578125 -1.71875q0.375 -0.640625 0.375 -1.390625q0 -1.359375 -1.078125 -2.390625q-1.0625 -1.046875 -2.609375 -1.046875q-1.5 0 -2.5 0.9375q-1.0 0.9375 -1.3125 2.9375l-2.4062805 -0.296875q0.328125 -2.65625 1.9375 -4.078125q1.6094055 -1.421875 4.2500305 -1.421875q2.796875 0 4.453125 1.53125q1.671875 1.515625 1.671875 3.671875q0 1.25 -0.59375 2.3125q-0.578125 1.046875 -2.28125 2.5625q-1.140625 1.015625 -1.5 1.5q-0.34375 0.46875 -0.515625 1.09375q-0.171875 0.625 -0.203125 2.03125l-2.25 0zm-0.140625 4.703125l0 -2.671875l2.671875 0l0 2.671875l-2.671875 0z" fill-rule="nonzero"/><path fill="#6aa84f" d="m379.68765 163.36746l70.39719 0c17.33435 0 31.386627 14.052261 31.386627 31.386612l0 19.400787l11.003601 0l-22.289581 16.929138l-22.289581 -16.929138l11.003601 0l0 -19.400787l0 0c0 -4.86821 -3.9464417 -8.814667 -8.814667 -8.814667l-70.39719 0z" fill-rule="evenodd"/><path fill="#ffe599" d="m143.14699 88.27816l0 -19.606293l-40.976387 0l0 -39.2126l40.976387 0l0 -19.606298l39.212585 39.212597z" fill-rule="evenodd"/><path stroke="#595959" stroke-width="1.0" stroke-linejoin="round" stroke-linecap="butt" d="m143.14699 88.27816l0 -19.606293l-40.976387 0l0 -39.2126l40.976387 0l0 -19.606298l39.212585 39.212597z" fill-rule="evenodd"/><path fill="#b4a7d6" d="m627.863 244.34718l-13.032288 -6.9077606l0 -27.631058c0 -3.8150482 5.834778 -6.9077606 13.032288 -6.9077606c7.19751 0 13.032227 3.0927124 13.032227 6.9077606l0 27.631058z" fill-rule="evenodd"/><path stroke="#595959" stroke-width="1.0" stroke-linejoin="round" stroke-linecap="butt" d="m627.863 244.34718l-13.032288 -6.9077606l0 -27.631058c0 -3.8150482 5.834778 -6.9077606 13.032288 -6.9077606c7.19751 0 13.032227 3.0927124 13.032227 6.9077606l0 27.631058z" fill-rule="evenodd"/><path fill="#b4a7d6" d="m619.3413 194.2103l0 0c0 -7.568756 3.8152466 -13.704437 8.521606 -13.704437l0 0c2.2601318 0 4.4276123 1.4438477 6.025757 4.0139313c1.5980835 2.5700836 2.4959106 6.0558624 2.4959106 9.690506l0 0c0 7.568756 -3.8152466 13.704437 -8.5216675 13.704437l0 0c-4.70636 0 -8.521606 -6.135681 -8.521606 -13.704437z" fill-rule="evenodd"/><path stroke="#595959" stroke-width="2.0" stroke-linejoin="round" stroke-linecap="butt" d="m619.3413 194.2103l0 0c0 -7.568756 3.8152466 -13.704437 8.521606 -13.704437l0 0c2.2601318 0 4.4276123 1.4438477 6.025757 4.0139313c1.5980835 2.5700836 2.4959106 6.0558624 2.4959106 9.690506l0 0c0 7.568756 -3.8152466 13.704437 -8.5216675 13.704437l0 0c-4.70636 0 -8.521606 -6.135681 -8.521606 -13.704437z" fill-rule="evenodd"/><path fill="#000000" fill-opacity="0.0" d="m616.83563 206.57727l14.368103 20.054565" fill-rule="evenodd"/><path stroke="#595959" stroke-width="2.0" stroke-linejoin="round" stroke-linecap="butt" d="m616.83563 206.57727l14.368103 20.054565" fill-rule="evenodd"/><path fill="#000000" fill-opacity="0.0" d="m639.2244 206.57727l-12.696838 13.367737" fill-rule="evenodd"/><path stroke="#595959" stroke-width="2.0" stroke-linejoin="round" stroke-linecap="butt" d="m639.2244 206.57727l-12.696838 13.367737" fill-rule="evenodd"/><path fill="#d5a6bd" d="m579.863 245.01973l-13.032288 -7.053299l0 -28.213226c0 -3.8954315 5.834778 -7.053299 13.032288 -7.053299c7.19751 0 13.032227 3.1578674 13.032227 7.053299l0 28.213226z" fill-rule="evenodd"/><path stroke="#595959" stroke-width="1.0" stroke-linejoin="round" stroke-linecap="butt" d="m579.863 245.01973l-13.032288 -7.053299l0 -28.213226c0 -3.8954315 5.834778 -7.053299 13.032288 -7.053299c7.19751 0 13.032227 3.1578674 13.032227 7.053299l0 28.213226z" fill-rule="evenodd"/><path fill="#d5a6bd" d="m571.3413 193.82649l0 0c0 -7.7282257 3.8152466 -13.993195 8.521606 -13.993195l0 0c2.2601318 0 4.4276123 1.474289 6.025757 4.0985107c1.5980835 2.624237 2.4959106 6.1834564 2.4959106 9.894684l0 0c0 7.7282257 -3.8152466 13.993179 -8.5216675 13.993179l0 0c-4.70636 0 -8.521606 -6.2649536 -8.521606 -13.993179z" fill-rule="evenodd"/><path stroke="#595959" stroke-width="2.0" stroke-linejoin="round" stroke-linecap="butt" d="m571.3413 193.82649l0 0c0 -7.7282257 3.8152466 -13.993195 8.521606 -13.993195l0 0c2.2601318 0 4.4276123 1.474289 6.025757 4.0985107c1.5980835 2.624237 2.4959106 6.1834564 2.4959106 9.894684l0 0c0 7.7282257 -3.8152466 13.993179 -8.5216675 13.993179l0 0c-4.70636 0 -8.521606 -6.2649536 -8.521606 -13.993179z" fill-rule="evenodd"/><path fill="#000000" fill-opacity="0.0" d="m568.83563 206.45404l14.368103 20.477097" fill-rule="evenodd"/><path stroke="#595959" stroke-width="2.0" stroke-linejoin="round" stroke-linecap="butt" d="m568.83563 206.45404l14.368103 20.477097" fill-rule="evenodd"/><path fill="#000000" fill-opacity="0.0" d="m591.2244 206.45404l-12.696838 13.649384" fill-rule="evenodd"/><path stroke="#595959" stroke-width="2.0" stroke-linejoin="round" stroke-linecap="butt" d="m591.2244 206.45404l-12.696838 13.649384" fill-rule="evenodd"/><path fill="#a4c2f4" d="m603.863 262.19595l-17.376343 -9.211578l0 -36.846313c0 -5.0874176 7.779663 -9.211578 17.376343 -9.211578c9.596619 0 17.376282 4.124161 17.376282 9.211578l0 36.846313z" fill-rule="evenodd"/><path stroke="#595959" stroke-width="1.0" stroke-linejoin="round" stroke-linecap="butt" d="m603.863 262.19595l-17.376343 -9.211578l0 -36.846313c0 -5.0874176 7.779663 -9.211578 17.376343 -9.211578c9.596619 0 17.376282 4.124161 17.376282 9.211578l0 36.846313z" fill-rule="evenodd"/><path fill="#a4c2f4" d="m592.50073 195.33786l0 0c0 -10.093018 5.087036 -18.275024 11.362183 -18.275024l0 0c3.0134888 0 5.9035034 1.9253998 8.034302 5.3526306c2.1308594 3.4272308 3.327942 8.075562 3.327942 12.922394l0 0c0 10.093018 -5.087036 18.275024 -11.362244 18.275024l0 0c-6.2751465 0 -11.362183 -8.182007 -11.362183 -18.275024z" fill-rule="evenodd"/><path stroke="#595959" stroke-width="2.0" stroke-linejoin="round" stroke-linecap="butt" d="m592.50073 195.33786l0 0c0 -10.093018 5.087036 -18.275024 11.362183 -18.275024l0 0c3.0134888 0 5.9035034 1.9253998 8.034302 5.3526306c2.1308594 3.4272308 3.327942 8.075562 3.327942 12.922394l0 0c0 10.093018 -5.087036 18.275024 -11.362244 18.275024l0 0c-6.2751465 0 -11.362183 -8.182007 -11.362183 -18.275024z" fill-rule="evenodd"/><path fill="#000000" fill-opacity="0.0" d="m589.15985 211.82936l19.15747 26.742981" fill-rule="evenodd"/><path stroke="#595959" stroke-width="2.0" stroke-linejoin="round" stroke-linecap="butt" d="m589.15985 211.82936l19.15747 26.742981" fill-rule="evenodd"/><path fill="#000000" fill-opacity="0.0" d="m619.0116 211.82936l-16.929138 17.826035" fill-rule="evenodd"/><path stroke="#595959" stroke-width="2.0" stroke-linejoin="round" stroke-linecap="butt" d="m619.0116 211.82936l-16.929138 17.826035" fill-rule="evenodd"/><path fill="#6aa84f" d="m688.51447 409.4987l0 34.087708c0 18.470001 -14.972961 33.4429 -33.442932 33.4429l-510.59647 0l0 8.910339l-19.110237 -23.167725l19.110237 -23.167725l0 8.910339l510.59647 0c2.7217407 0 4.9281616 -2.2063904 4.9281616 -4.928131l0 -34.087708z" fill-rule="evenodd"/><path fill="#cc0000" d="m89.69823 252.32283l0 13.81102l279.80573 0l0 27.62207l-279.80573 0l0 13.811005l-16.036812 -27.62204z" fill-rule="evenodd"/><path fill="#cc0000" d="m177.04462 166.93176l-52.93802 0l0 0c-27.922417 0 -50.558014 22.63559 -50.558014 50.558014l0 174.57138l-13.2283745 0l25.833447 27.909973l25.83345 -27.909973l-13.228378 0l0 -174.57138l0 0c0 -13.999252 11.348625 -25.347885 25.34787 -25.347885l52.93802 0z" fill-rule="evenodd"/><path fill="#000000" fill-opacity="0.0" d="m15.46293 14.235987l86.708664 0l0 51.716537l-86.708664 0z" fill-rule="evenodd"/><path fill="#000000" d="m25.431679 42.63286l3.75 -0.375q0.328125 1.890625 1.359375 2.78125q1.046875 0.875 2.796875 0.875q1.859375 0 2.796875 -0.78125q0.953125 -0.78125 0.953125 -1.84375q0 -0.671875 -0.40625 -1.140625q-0.390625 -0.484375 -1.375 -0.828125q-0.671875 -0.234375 -3.09375 -0.84375q-3.09375 -0.765625 -4.34375 -1.890625q-1.75 -1.5625 -1.75 -3.828125q0 -1.46875 0.828125 -2.734375q0.828125 -1.2656231 2.375 -1.9218731q1.5625 -0.671875 3.75 -0.671875q3.59375 0 5.40625 1.578125q1.828125 1.5781231 1.921875 4.203123l-3.859375 0.171875q-0.25 -1.46875 -1.0625 -2.109375q-0.8125 -0.65625 -2.4375 -0.65625q-1.6875 0 -2.625 0.6875q-0.609375 0.453125 -0.609375 1.1875q0 0.671875 0.5625 1.15625q0.734375 0.609375 3.546875 1.28125q2.8125 0.65625 4.15625 1.375q1.34375 0.703125 2.109375 1.9375q0.765625 1.234375 0.765625 3.03125q0 1.640625 -0.921875 3.078125q-0.90625 1.4375 -2.578125 2.140625q-1.65625 0.6875 -4.140625 0.6875q-3.625 0 -5.5625 -1.671875q-1.9375 -1.671875 -2.3125 -4.875zm25.06076 -7.625l0 2.921875l-2.5 0l0 5.5625q0 1.703125 0.0625 1.984375q0.078125 0.28125 0.328125 0.46875q0.265625 0.171875 0.625 0.171875q0.515625 0 1.46875 -0.359375l0.3125 2.84375q-1.265625 0.546875 -2.890625 0.546875q-0.984375 0 -1.78125 -0.328125q-0.796875 -0.328125 -1.171875 -0.859375q-0.359375 -0.53125 -0.5 -1.421875q-0.125 -0.640625 -0.125 -2.578125l0 -6.03125l-1.671875 0l0 -2.921875l1.671875 0l0 -2.734375l3.671875 -2.140623l0 4.874998l2.5 0zm5.2673645 4.21875l-3.3125 -0.59375q0.5625 -2.0 1.921875 -2.96875q1.375 -0.96875 4.0625 -0.96875q2.453125 0 3.640625 0.578125q1.203125 0.578125 1.6875 1.484375q0.5 0.890625 0.5 3.265625l-0.046875 4.265625q0 1.828125 0.171875 2.703125q0.171875 0.859375 0.65625 1.84375l-3.609375 0q-0.140625 -0.359375 -0.359375 -1.078125q-0.09375 -0.328125 -0.125 -0.4375q-0.9375 0.921875 -2.015625 1.375q-1.0625 0.453125 -2.265625 0.453125q-2.140625 0 -3.375 -1.15625q-1.21875 -1.15625 -1.21875 -2.9375q0 -1.171875 0.546875 -2.078125q0.5625 -0.921875 1.578125 -1.40625q1.015625 -0.484375 2.90625 -0.859375q2.5625 -0.484375 3.5625 -0.890625l0 -0.375q0 -1.046875 -0.53125 -1.5q-0.515625 -0.453125 -1.96875 -0.453125q-0.96875 0 -1.515625 0.390625q-0.546875 0.390625 -0.890625 1.34375zm4.90625 2.96875q-0.703125 0.234375 -2.234375 0.5625q-1.515625 0.328125 -1.984375 0.640625q-0.71875 0.5 -0.71875 1.28125q0 0.765625 0.5625 1.328125q0.578125 0.5625 1.46875 0.5625q0.984375 0 1.890625 -0.65625q0.65625 -0.484375 0.859375 -1.203125q0.15625 -0.46875 0.15625 -1.78125l0 -0.734375zm10.699936 6.640625l-3.671875 0l0 -13.828125l3.40625 0l0 1.96875q0.875 -1.390625 1.5625 -1.828125q0.703125 -0.453125 1.578125 -0.453125q1.25 0 2.421875 0.703125l-1.140625 3.1875q-0.921875 -0.609375 -1.71875 -0.609375q-0.765625 0 -1.296875 0.421875q-0.53125 0.421875 -0.84375 1.53125q-0.296875 1.109375 -0.296875 4.640625l0 4.265625zm13.201675 -13.828125l0 2.921875l-2.5 0l0 5.5625q0 1.703125 0.0625 1.984375q0.078125 0.28125 0.328125 0.46875q0.265625 0.171875 0.625 0.171875q0.515625 0 1.46875 -0.359375l0.3125 2.84375q-1.265625 0.546875 -2.890625 0.546875q-0.984375 0 -1.78125 -0.328125q-0.796875 -0.328125 -1.171875 -0.859375q-0.359375 -0.53125 -0.5 -1.421875q-0.125 -0.640625 -0.125 -2.578125l0 -6.03125l-1.671875 0l0 -2.921875l1.671875 0l0 -2.734375l3.671875 -2.140623l0 4.874998l2.5 0z" fill-rule="nonzero"/><path fill="#cc0000" d="m182.35957 117.928925l13.811035 0l0 -39.590553l27.62204 0l0 39.590553l13.81102 0l-27.62204 27.622055z" fill-rule="evenodd"/><path fill="#6aa84f" d="m319.11548 117.928925l13.811035 0l0 -39.590553l27.62204 0l0 39.590553l13.811035 0l-27.62207 27.622055z" fill-rule="evenodd"/><path fill="#b45f06" d="m387.12772 93.80159l4.7893677 -43.713814l9.578766 0l4.7893677 43.713814z" fill-rule="evenodd"/><path stroke="#595959" stroke-width="1.0" stroke-linejoin="round" stroke-linecap="butt" d="m387.12772 93.80159l4.7893677 -43.713814l9.578766 0l4.7893677 43.713814z" fill-rule="evenodd"/><path fill="#38761d" d="m392.09424 65.72538l0 0c-3.1643372 0.7393036 -6.468048 -0.48863983 -8.509216 -3.1627693c-2.0411987 -2.6741333 -2.4618835 -6.325466 -1.0835571 -9.404606l0 0c-1.9540405 -0.87680817 -3.4067078 -2.6676445 -3.9186401 -4.8308144c-0.51190186 -2.163166 -0.022949219 -4.4445953 1.3189697 -6.1541977l0 0c-1.7666626 -0.7379875 -3.0535889 -2.378151 -3.4041138 -4.338478c-0.35055542 -1.9603271 0.2849121 -3.9633827 1.6809082 -5.298374l0 0c-1.9304504 -1.4437599 -2.9068604 -3.9243126 -2.5066833 -6.368313c0.40014648 -2.4439983 2.1049805 -4.4124794 4.3768005 -5.053671l0 0c0.33721924 -2.0055447 1.4873047 -3.7522526 3.1531067 -4.788828c1.665802 -1.0365763 3.683899 -1.2613363 5.5328674 -0.61620903l0 0c2.2207336 -2.1402998 5.3651123 -2.870883 8.259766 -1.9191093c2.8946228 0.9517746 5.1046143 3.442913 5.805237 6.543768c2.6206055 -0.20724487 5.1553955 1.0928631 6.6273804 3.3992062c1.4720154 2.3063412 1.6513367 5.2587757 0.4689026 7.719305l0 0c3.2233276 0.721611 5.77594 3.3237839 6.5550537 6.6822853c0.77908325 3.3584976 -0.355011 6.8712463 -2.912323 9.020603l0 0c1.5473938 2.2245636 2.179718 5.0010986 1.7543335 7.7032776c-0.42538452 2.702179 -1.8726501 5.102379 -4.0152893 6.6591682l0 0c0.4753418 2.3700867 -0.5014343 4.787445 -2.4455872 6.052353c-1.9441833 1.2649002 -4.4418335 1.1080856 -6.253418 -0.39263153l0 0c-1.0081787 2.239624 -3.283661 3.5366669 -5.6398926 3.2147675c-2.3562012 -0.3218994 -4.2592163 -2.1897964 -4.7167053 -4.629654z" fill-rule="evenodd"/><path fill="#000000" fill-opacity="0.0" d="m402.57843 67.176765l0 0c0.47576904 -1.0568848 0.6298523 -2.2431946 0.44152832 -3.3996353m8.257751 -2.2595825c-0.09942627 -0.49570084 -0.2602234 -0.97602844 -0.47827148 -1.4286041m2.7391357 -12.933128c-0.47122192 0.39603806 -0.98184204 0.73779297 -1.5232239 1.0194435m-2.1196594 -16.722935l0 0c-0.5876465 -0.13155937 -1.1864319 -0.19770241 -1.7863464 -0.19732475m-5.309662 -10.920765c-2.7900085 0.2206459 -5.1972046 2.109787 -6.1875916 4.855982m-7.8771057 -9.480611c0.98669434 0.34426594 1.8858337 0.9230051 2.6269836 1.6908388m-11.313263 3.7138195l0 0c0.37701416 -0.10640526 0.7631836 -0.17419243 1.1531982 -0.2024231m-3.0232239 11.624205l0 0c0.48156738 0.36014557 1.0094299 0.6453705 1.5672302 0.84679794m0.15582275 8.790165l0 0c0.4242859 0.17724228 0.8674927 0.29852676 1.3193359 0.3610611m1.280365 10.624111l0 0c0.2916565 -0.65154266 0.6577759 -1.2627449 1.0903931 -1.8201828m8.502411 14.3873825l0 0c0.4361267 -0.10189819 0.86361694 -0.2399826 1.2784424 -0.41296387" fill-rule="evenodd"/><path stroke="#274e13" stroke-width="4.0" stroke-linejoin="round" stroke-linecap="butt" d="m392.09424 65.72538l0 0c-3.1643372 0.7393036 -6.468048 -0.48863983 -8.509216 -3.1627693c-2.0411987 -2.6741333 -2.4618835 -6.325466 -1.0835571 -9.404606l0 0c-1.9540405 -0.87680817 -3.4067078 -2.6676445 -3.9186401 -4.8308144c-0.51190186 -2.163166 -0.022949219 -4.4445953 1.3189697 -6.1541977l0 0c-1.7666626 -0.7379875 -3.0535889 -2.378151 -3.4041138 -4.338478c-0.35055542 -1.9603271 0.2849121 -3.9633827 1.6809082 -5.298374l0 0c-1.9304504 -1.4437599 -2.9068604 -3.9243126 -2.5066833 -6.368313c0.40014648 -2.4439983 2.1049805 -4.4124794 4.3768005 -5.053671l0 0c0.33721924 -2.0055447 1.4873047 -3.7522526 3.1531067 -4.788828c1.665802 -1.0365763 3.683899 -1.2613363 5.5328674 -0.61620903l0 0c2.2207336 -2.1402998 5.3651123 -2.870883 8.259766 -1.9191093c2.8946228 0.9517746 5.1046143 3.442913 5.805237 6.543768c2.6206055 -0.20724487 5.1553955 1.0928631 6.6273804 3.3992062c1.4720154 2.3063412 1.6513367 5.2587757 0.4689026 7.719305l0 0c3.2233276 0.721611 5.77594 3.3237839 6.5550537 6.6822853c0.77908325 3.3584976 -0.355011 6.8712463 -2.912323 9.020603l0 0c1.5473938 2.2245636 2.179718 5.0010986 1.7543335 7.7032776c-0.42538452 2.702179 -1.8726501 5.102379 -4.0152893 6.6591682l0 0c0.4753418 2.3700867 -0.5014343 4.787445 -2.4455872 6.052353c-1.9441833 1.2649002 -4.4418335 1.1080856 -6.253418 -0.39263153l0 0c-1.0081787 2.239624 -3.283661 3.5366669 -5.6398926 3.2147675c-2.3562012 -0.3218994 -4.2592163 -2.1897964 -4.7167053 -4.629654z" fill-rule="evenodd"/><path stroke="#274e13" stroke-width="4.0" stroke-linejoin="round" stroke-linecap="butt" d="m402.57843 67.176765l0 0c0.47576904 -1.0568848 0.6298523 -2.2431946 0.44152832 -3.3996353m8.257751 -2.2595825c-0.09942627 -0.49570084 -0.2602234 -0.97602844 -0.47827148 -1.4286041m2.7391357 -12.933128c-0.47122192 0.39603806 -0.98184204 0.73779297 -1.5232239 1.0194435m-2.1196594 -16.722935l0 0c-0.5876465 -0.13155937 -1.1864319 -0.19770241 -1.7863464 -0.19732475m-5.309662 -10.920765c-2.7900085 0.2206459 -5.1972046 2.109787 -6.1875916 4.855982m-7.8771057 -9.480611c0.98669434 0.34426594 1.8858337 0.9230051 2.6269836 1.6908388m-11.313263 3.7138195l0 0c0.37701416 -0.10640526 0.7631836 -0.17419243 1.1531982 -0.2024231m-3.0232239 11.624205l0 0c0.48156738 0.36014557 1.0094299 0.6453705 1.5672302 0.84679794m0.15582275 8.790165l0 0c0.4242859 0.17724228 0.8674927 0.29852676 1.3193359 0.3610611m1.280365 10.624111l0 0c0.2916565 -0.65154266 0.6577759 -1.2627449 1.0903931 -1.8201828m8.502411 14.3873825l0 0c0.4361267 -0.10189819 0.86361694 -0.2399826 1.2784424 -0.41296387" fill-rule="evenodd"/><path fill="#b45f06" d="m418.9305 70.63604l3.3523865 -30.65091l6.704712 0l3.352356 30.65091z" fill-rule="evenodd"/><path stroke="#595959" stroke-width="1.0" stroke-linejoin="round" stroke-linecap="butt" d="m418.9305 70.63604l3.3523865 -30.65091l6.704712 0l3.352356 30.65091z" fill-rule="evenodd"/><path fill="#38761d" d="m422.4073 50.948494l0 0c-2.2150574 0.5184479 -4.52771 -0.3424225 -5.956543 -2.2173195c-1.428833 -1.874897 -1.7232971 -4.4349976 -0.75845337 -6.59396l0 0c-1.3678284 -0.6147156 -2.3847046 -1.8703117 -2.743042 -3.3869934c-0.3583374 -1.5166779 -0.016052246 -3.1163063 0.9233093 -4.3150215l0 0c-1.2366638 -0.5173874 -2.1375427 -1.6673431 -2.382904 -3.0418072c-0.24536133 -1.3744621 0.19949341 -2.7789116 1.1766968 -3.7149754l0 0c-1.3513184 -1.0122299 -2.03479 -2.7514286 -1.7546692 -4.4650383c0.28012085 -1.7136097 1.4735413 -3.0938492 3.0638428 -3.54348l0 0c0.23608398 -1.406189 1.0411682 -2.6309166 2.2072754 -3.3577538c1.1660767 -0.72683716 2.5787659 -0.88448334 3.8730774 -0.43220806l0 0c1.5545349 -1.5007238 3.7556763 -2.0130577 5.781952 -1.3458071c2.0262756 0.6672497 3.5733032 2.4138374 4.0637207 4.587965c1.8344421 -0.14538193 3.6088257 0.76610947 4.639221 2.3831482c1.030426 1.6170387 1.1559448 3.6871185 0.32818604 5.41234l0 0c2.2563782 0.5058632 4.043213 2.3302917 4.5885925 4.6850643c0.5453491 2.3547726 -0.24856567 4.817751 -2.0387268 6.324835l0 0c1.0831909 1.5596962 1.5257874 3.5064354 1.2279968 5.401066c-0.29779053 1.8946304 -1.3108826 3.5775604 -2.810791 4.669155l0 0c0.33273315 1.6617622 -0.3510437 3.3567085 -1.7119751 4.2436447c-1.3609619 0.8869362 -3.1093445 0.77705383 -4.377472 -0.27511215l0 0c-0.7057495 1.5703316 -2.298645 2.4798088 -3.9480286 2.254177c-1.6493835 -0.22563171 -2.9815063 -1.535244 -3.3017273 -3.245926z" fill-rule="evenodd"/><path fill="#000000" fill-opacity="0.0" d="m429.74637 51.965828l0 0c0.33306885 -0.7410431 0.44091797 -1.5728188 0.30908203 -2.383648m5.780548 -1.5845299c-0.06958008 -0.34755325 -0.1821289 -0.68433 -0.3347473 -1.0016441m1.9174805 -9.068077c-0.32983398 0.2776947 -0.6873169 0.51733017 -1.0662842 0.71482086m-1.4836731 -11.725142l0 0c-0.41137695 -0.09222603 -0.8305359 -0.13858604 -1.2504578 -0.13830376m-3.7167664 -7.656889c-1.953064 0.15478325 -3.6381226 1.4794121 -4.3314514 3.4049225m-5.5140076 -6.6470604c0.6906738 0.24135208 1.3200989 0.6471062 1.8388977 1.1854496m-7.919464 2.6042461l0 0c0.26391602 -0.074617386 0.53427124 -0.12215614 0.8072815 -0.14196205m-2.116394 8.150341l0 0c0.33709717 0.25250053 0.7066345 0.45246887 1.0970764 0.59368134m0.10903931 6.1631775l0 0c0.29699707 0.12425995 0.60723877 0.20928574 0.92355347 0.2531166m0.8961792 7.449009l0 0c0.2041626 -0.4568367 0.46047974 -0.8853874 0.76330566 -1.2762451m5.951721 10.087402l0 0c0.30529785 -0.07145691 0.6045532 -0.16828537 0.894928 -0.2895813" fill-rule="evenodd"/><path stroke="#274e13" stroke-width="4.0" stroke-linejoin="round" stroke-linecap="butt" d="m422.4073 50.948494l0 0c-2.2150574 0.5184479 -4.52771 -0.3424225 -5.956543 -2.2173195c-1.428833 -1.874897 -1.7232971 -4.4349976 -0.75845337 -6.59396l0 0c-1.3678284 -0.6147156 -2.3847046 -1.8703117 -2.743042 -3.3869934c-0.3583374 -1.5166779 -0.016052246 -3.1163063 0.9233093 -4.3150215l0 0c-1.2366638 -0.5173874 -2.1375427 -1.6673431 -2.382904 -3.0418072c-0.24536133 -1.3744621 0.19949341 -2.7789116 1.1766968 -3.7149754l0 0c-1.3513184 -1.0122299 -2.03479 -2.7514286 -1.7546692 -4.4650383c0.28012085 -1.7136097 1.4735413 -3.0938492 3.0638428 -3.54348l0 0c0.23608398 -1.406189 1.0411682 -2.6309166 2.2072754 -3.3577538c1.1660767 -0.72683716 2.5787659 -0.88448334 3.8730774 -0.43220806l0 0c1.5545349 -1.5007238 3.7556763 -2.0130577 5.781952 -1.3458071c2.0262756 0.6672497 3.5733032 2.4138374 4.0637207 4.587965c1.8344421 -0.14538193 3.6088257 0.76610947 4.639221 2.3831482c1.030426 1.6170387 1.1559448 3.6871185 0.32818604 5.41234l0 0c2.2563782 0.5058632 4.043213 2.3302917 4.5885925 4.6850643c0.5453491 2.3547726 -0.24856567 4.817751 -2.0387268 6.324835l0 0c1.0831909 1.5596962 1.5257874 3.5064354 1.2279968 5.401066c-0.29779053 1.8946304 -1.3108826 3.5775604 -2.810791 4.669155l0 0c0.33273315 1.6617622 -0.3510437 3.3567085 -1.7119751 4.2436447c-1.3609619 0.8869362 -3.1093445 0.77705383 -4.377472 -0.27511215l0 0c-0.7057495 1.5703316 -2.298645 2.4798088 -3.9480286 2.254177c-1.6493835 -0.22563171 -2.9815063 -1.535244 -3.3017273 -3.245926z" fill-rule="evenodd"/><path stroke="#274e13" stroke-width="4.0" stroke-linejoin="round" stroke-linecap="butt" d="m429.74637 51.965828l0 0c0.33306885 -0.7410431 0.44091797 -1.5728188 0.30908203 -2.383648m5.780548 -1.5845299c-0.06958008 -0.34755325 -0.1821289 -0.68433 -0.3347473 -1.0016441m1.9174805 -9.068077c-0.32983398 0.2776947 -0.6873169 0.51733017 -1.0662842 0.71482086m-1.4836731 -11.725142l0 0c-0.41137695 -0.09222603 -0.8305359 -0.13858604 -1.2504578 -0.13830376m-3.7167664 -7.656889c-1.953064 0.15478325 -3.6381226 1.4794121 -4.3314514 3.4049225m-5.5140076 -6.6470604c0.6906738 0.24135208 1.3200989 0.6471062 1.8388977 1.1854496m-7.919464 2.6042461l0 0c0.26391602 -0.074617386 0.53427124 -0.12215614 0.8072815 -0.14196205m-2.116394 8.150341l0 0c0.33709717 0.25250053 0.7066345 0.45246887 1.0970764 0.59368134m0.10903931 6.1631775l0 0c0.29699707 0.12425995 0.60723877 0.20928574 0.92355347 0.2531166m0.8961792 7.449009l0 0c0.2041626 -0.4568367 0.46047974 -0.8853874 0.76330566 -1.2762451m5.951721 10.087402l0 0c0.30529785 -0.07145691 0.6045532 -0.16828537 0.894928 -0.2895813" fill-rule="evenodd"/><path fill="#b45f06" d="m454.71085 98.43409l5.748047 -52.54329l11.496063 0l5.7480164 52.54329z" fill-rule="evenodd"/><path stroke="#595959" stroke-width="1.0" stroke-linejoin="round" stroke-linecap="butt" d="m454.71085 98.43409l5.748047 -52.54329l11.496063 0l5.7480164 52.54329z" fill-rule="evenodd"/><path fill="#38761d" d="m460.67075 64.68562l0 0c-3.7972412 0.88868713 -7.7617493 -0.58709717 -10.211243 -3.801117c-2.4494934 -3.2140236 -2.9544067 -7.6026154 -1.3004761 -11.303535l0 0c-2.3448792 -1.053791 -4.088135 -3.2061844 -4.702484 -5.806122c-0.61434937 -2.5999374 -0.027648926 -5.342045 1.5826721 -7.3968887l0 0c-2.1200562 -0.8869438 -3.6644287 -2.8582458 -4.0851135 -5.21439c-0.4206848 -2.356142 0.3418579 -4.76367 2.0170288 -6.368269l0 0c-2.3165894 -1.735218 -3.4883118 -4.71661 -3.0081787 -7.654112c0.48016357 -2.937501 2.52594 -5.3035097 5.252136 -6.0742416l0 0c0.4046631 -2.410512 1.7847595 -4.5099487 3.783722 -5.7558827c1.9989624 -1.2459335 4.420685 -1.5161414 6.639496 -0.7408099l0 0c2.664856 -2.5725377 6.4381714 -3.4507399 9.911804 -2.306877c3.4736328 1.143863 6.125702 4.1379385 6.966522 7.864891c3.1447449 -0.24917603 6.186554 1.3133669 7.9530334 4.0853567c1.766449 2.7719889 1.98172 6.320569 0.5628052 9.277963l0 0c3.868042 0.8672161 6.9312744 3.9947357 7.866272 8.031353c0.93499756 4.0366173 -0.4258728 8.25869 -3.494629 10.842129l0 0c1.8569336 2.6736908 2.6157837 6.0108414 2.1053467 9.258656c-0.5104065 3.2478104 -2.2471008 6.1327057 -4.8182983 8.003906l0 0c0.5704956 2.8486366 -0.60162354 5.754135 -2.9346313 7.2745056c-2.3329773 1.5203781 -5.3302307 1.3319778 -7.5042114 -0.47170258l0 0c-1.2097778 2.6918793 -3.9403687 4.2508926 -6.767853 3.864067c-2.8275146 -0.38682556 -5.111206 -2.6318207 -5.6602173 -5.564316z" fill-rule="evenodd"/><path fill="#000000" fill-opacity="0.0" d="m473.25198 66.42973l0 0c0.57092285 -1.2703018 0.7557678 -2.6961517 0.52978516 -4.0860977m9.909363 -2.7160988c-0.11932373 -0.59578323 -0.31228638 -1.1730957 -0.5739136 -1.7170486m3.2867432 -15.544655c-0.5654602 0.4760208 -1.1782227 0.88679886 -1.8278809 1.2253342m-2.5439148 -20.099537l0 0c-0.7052307 -0.15810585 -1.4237671 -0.23758698 -2.1436768 -0.23711395m-6.3718567 -13.125699c-3.348053 0.26528645 -6.2366943 2.5359573 -7.4251404 5.836693m-9.45282 -11.394671c1.1840515 0.41374826 2.2630615 1.1093159 3.1524353 2.0321665m-13.576019 4.464072l0 0c0.4524231 -0.12790298 0.91586304 -0.2093916 1.3838806 -0.24333477m-3.627716 13.971448l0 0c0.57788086 0.43284988 1.2113647 0.77565 1.8807068 1.0177288m0.1871643 10.56506l0 0c0.5091553 0.21301651 1.0409851 0.3587761 1.583252 0.43392563m1.5366211 12.769276l0 0c0.3499756 -0.7831116 0.78933716 -1.5177422 1.3084412 -2.187748m10.203308 17.29219l0 0c0.52337646 -0.1224823 1.0363464 -0.28845978 1.5341492 -0.49638367" fill-rule="evenodd"/><path stroke="#274e13" stroke-width="4.0" stroke-linejoin="round" stroke-linecap="butt" d="m460.67075 64.68562l0 0c-3.7972412 0.88868713 -7.7617493 -0.58709717 -10.211243 -3.801117c-2.4494934 -3.2140236 -2.9544067 -7.6026154 -1.3004761 -11.303535l0 0c-2.3448792 -1.053791 -4.088135 -3.2061844 -4.702484 -5.806122c-0.61434937 -2.5999374 -0.027648926 -5.342045 1.5826721 -7.3968887l0 0c-2.1200562 -0.8869438 -3.6644287 -2.8582458 -4.0851135 -5.21439c-0.4206848 -2.356142 0.3418579 -4.76367 2.0170288 -6.368269l0 0c-2.3165894 -1.735218 -3.4883118 -4.71661 -3.0081787 -7.654112c0.48016357 -2.937501 2.52594 -5.3035097 5.252136 -6.0742416l0 0c0.4046631 -2.410512 1.7847595 -4.5099487 3.783722 -5.7558827c1.9989624 -1.2459335 4.420685 -1.5161414 6.639496 -0.7408099l0 0c2.664856 -2.5725377 6.4381714 -3.4507399 9.911804 -2.306877c3.4736328 1.143863 6.125702 4.1379385 6.966522 7.864891c3.1447449 -0.24917603 6.186554 1.3133669 7.9530334 4.0853567c1.766449 2.7719889 1.98172 6.320569 0.5628052 9.277963l0 0c3.868042 0.8672161 6.9312744 3.9947357 7.866272 8.031353c0.93499756 4.0366173 -0.4258728 8.25869 -3.494629 10.842129l0 0c1.8569336 2.6736908 2.6157837 6.0108414 2.1053467 9.258656c-0.5104065 3.2478104 -2.2471008 6.1327057 -4.8182983 8.003906l0 0c0.5704956 2.8486366 -0.60162354 5.754135 -2.9346313 7.2745056c-2.3329773 1.5203781 -5.3302307 1.3319778 -7.5042114 -0.47170258l0 0c-1.2097778 2.6918793 -3.9403687 4.2508926 -6.767853 3.864067c-2.8275146 -0.38682556 -5.111206 -2.6318207 -5.6602173 -5.564316z" fill-rule="evenodd"/><path stroke="#274e13" stroke-width="4.0" stroke-linejoin="round" stroke-linecap="butt" d="m473.25198 66.42973l0 0c0.57092285 -1.2703018 0.7557678 -2.6961517 0.52978516 -4.0860977m9.909363 -2.7160988c-0.11932373 -0.59578323 -0.31228638 -1.1730957 -0.5739136 -1.7170486m3.2867432 -15.544655c-0.5654602 0.4760208 -1.1782227 0.88679886 -1.8278809 1.2253342m-2.5439148 -20.099537l0 0c-0.7052307 -0.15810585 -1.4237671 -0.23758698 -2.1436768 -0.23711395m-6.3718567 -13.125699c-3.348053 0.26528645 -6.2366943 2.5359573 -7.4251404 5.836693m-9.45282 -11.394671c1.1840515 0.41374826 2.2630615 1.1093159 3.1524353 2.0321665m-13.576019 4.464072l0 0c0.4524231 -0.12790298 0.91586304 -0.2093916 1.3838806 -0.24333477m-3.627716 13.971448l0 0c0.57788086 0.43284988 1.2113647 0.77565 1.8807068 1.0177288m0.1871643 10.56506l0 0c0.5091553 0.21301651 1.0409851 0.3587761 1.583252 0.43392563m1.5366211 12.769276l0 0c0.3499756 -0.7831116 0.78933716 -1.5177422 1.3084412 -2.187748m10.203308 17.29219l0 0c0.52337646 -0.1224823 1.0363464 -0.28845978 1.5341492 -0.49638367" fill-rule="evenodd"/><path fill="#7f6000" d="m409.2455 76.50629l42.505493 0l0 2.9381866l-42.505493 0z" fill-rule="evenodd"/><path stroke="#595959" stroke-width="1.0" stroke-linejoin="round" stroke-linecap="butt" d="m409.2455 76.50629l42.505493 0l0 2.9381866l-42.505493 0z" fill-rule="evenodd"/><path fill="#7f6000" d="m409.2455 80.88444l42.505493 0l0 2.9381866l-42.505493 0z" fill-rule="evenodd"/><path stroke="#595959" stroke-width="1.0" stroke-linejoin="round" stroke-linecap="butt" d="m409.2455 80.88444l42.505493 0l0 2.9381866l-42.505493 0z" fill-rule="evenodd"/><path fill="#7f6000" d="m446.51166 98.43405l0 -10.689896l5.2393494 10.689896z" fill-rule="evenodd"/><path stroke="#595959" stroke-width="1.0" stroke-linejoin="round" stroke-linecap="butt" d="m446.51166 98.43405l0 -10.689896l5.2393494 10.689896z" fill-rule="evenodd"/><path fill="#7f6000" d="m414.48486 98.43405l0 -10.689896l-5.2393494 10.689896z" fill-rule="evenodd"/><path stroke="#595959" stroke-width="1.0" stroke-linejoin="round" stroke-linecap="butt" d="m414.48486 98.43405l0 -10.689896l-5.2393494 10.689896z" fill-rule="evenodd"/><path fill="#7f6000" d="m409.2455 85.439735l42.505493 0l0 4.700157l-42.505493 0z" fill-rule="evenodd"/><path stroke="#595959" stroke-width="1.0" stroke-linejoin="round" stroke-linecap="butt" d="m409.2455 85.439735l42.505493 0l0 4.700157l-42.505493 0z" fill-rule="evenodd"/><path fill="#b6d7a8" d="m748.7169 465.52243l0 0c0 -30.474335 24.714233 -55.17868 55.200806 -55.17868l0 0c14.640198 0 28.680725 5.813446 39.032837 16.161469c10.352173 10.347992 16.167969 24.382935 16.167969 39.017212l0 0c0 30.474365 -24.714233 55.17874 -55.200806 55.17874l0 0c-30.486572 0 -55.200806 -24.704376 -55.200806 -55.17874z" fill-rule="evenodd"/><path fill="#000000" fill-opacity="0.0" d="m803.9177 410.34375l0 110.35742m-55.200806 -55.17874l110.40161 0" fill-rule="evenodd"/><path fill="#000000" fill-opacity="0.0" d="m748.7169 465.52243l0 0c0 -30.474335 24.714233 -55.17868 55.200806 -55.17868l0 0c14.640198 0 28.680725 5.813446 39.032837 16.161469c10.352173 10.347992 16.167969 24.382935 16.167969 39.017212l0 0c0 30.474365 -24.714233 55.17874 -55.200806 55.17874l0 0c-30.486572 0 -55.200806 -24.704376 -55.200806 -55.17874z" fill-rule="evenodd"/><path stroke="#274e13" stroke-width="8.0" stroke-linejoin="round" stroke-linecap="butt" d="m803.9177 410.34375l0 110.35742m-55.200806 -55.17874l110.40161 0" fill-rule="evenodd"/><path stroke="#274e13" stroke-width="8.0" stroke-linejoin="round" stroke-linecap="butt" d="m748.7169 465.52243l0 0c0 -30.474335 24.714233 -55.17868 55.200806 -55.17868l0 0c14.640198 0 28.680725 5.813446 39.032837 16.161469c10.352173 10.347992 16.167969 24.382935 16.167969 39.017212l0 0c0 30.474365 -24.714233 55.17874 -55.200806 55.17874l0 0c-30.486572 0 -55.200806 -24.704376 -55.200806 -55.17874z" fill-rule="evenodd"/><path fill="#000000" fill-opacity="0.0" d="m764.8849 426.50522c0 8.62027 19.515747 17.233704 39.031494 17.24057c19.515747 0.0068969727 39.031494 -8.592743 39.031494 -17.185486" fill-rule="evenodd"/><path stroke="#274e13" stroke-width="8.0" stroke-linejoin="round" stroke-linecap="butt" d="m764.8849 426.50522c0 8.62027 19.515747 17.233704 39.031494 17.24057c19.515747 0.0068969727 39.031494 -8.592743 39.031494 -17.185486" fill-rule="evenodd"/><path fill="#000000" fill-opacity="0.0" d="m764.8849 504.53967c0 -9.902191 19.515747 -19.811249 39.031494 -19.804382c19.515747 0.0068969727 39.031494 9.929749 39.031494 19.859497" fill-rule="evenodd"/><path stroke="#274e13" stroke-width="8.0" stroke-linejoin="round" stroke-linecap="butt" d="m764.8849 504.53967c0 -9.902191 19.515747 -19.811249 39.031494 -19.804382c19.515747 0.0068969727 39.031494 9.929749 39.031494 19.859497" fill-rule="evenodd"/><path fill="#a2c4c9" d="m767.4466 490.22046l-13.032227 -6.902252l0 -27.608948c0 -3.8119812 5.834717 -6.9022217 13.032227 -6.9022217c7.19751 0 13.032227 3.0902405 13.032227 6.9022217l0 27.608948z" fill-rule="evenodd"/><path stroke="#595959" stroke-width="1.0" stroke-linejoin="round" stroke-linecap="butt" d="m767.4466 490.22046l-13.032227 -6.902252l0 -27.608948c0 -3.8119812 5.834717 -6.9022217 13.032227 -6.9022217c7.19751 0 13.032227 3.0902405 13.032227 6.9022217l0 27.608948z" fill-rule="evenodd"/><path fill="#a2c4c9" d="m758.9249 440.12366l0 0c0 -7.562683 3.8153076 -13.693481 8.5216675 -13.693481l0 0c2.2600708 0 4.4276123 1.4427185 6.025696 4.010742c1.5981445 2.5680237 2.4959717 6.0510254 2.4959717 9.682739l0 0c0 7.5627136 -3.8153076 13.693481 -8.5216675 13.693481l0 0c-4.70636 0 -8.5216675 -6.130768 -8.5216675 -13.693481z" fill-rule="evenodd"/><path stroke="#595959" stroke-width="2.0" stroke-linejoin="round" stroke-linecap="butt" d="m758.9249 440.12366l0 0c0 -7.562683 3.8153076 -13.693481 8.5216675 -13.693481l0 0c2.2600708 0 4.4276123 1.4427185 6.025696 4.010742c1.5981445 2.5680237 2.4959717 6.0510254 2.4959717 9.682739l0 0c0 7.5627136 -3.8153076 13.693481 -8.5216675 13.693481l0 0c-4.70636 0 -8.5216675 -6.130768 -8.5216675 -13.693481z" fill-rule="evenodd"/><path fill="#000000" fill-opacity="0.0" d="m756.4193 452.48074l14.368103 20.038544" fill-rule="evenodd"/><path stroke="#595959" stroke-width="2.0" stroke-linejoin="round" stroke-linecap="butt" d="m756.4193 452.48074l14.368103 20.038544" fill-rule="evenodd"/><path fill="#000000" fill-opacity="0.0" d="m778.80804 452.48074l-12.696838 13.357056" fill-rule="evenodd"/><path stroke="#595959" stroke-width="2.0" stroke-linejoin="round" stroke-linecap="butt" d="m778.80804 452.48074l-12.696838 13.357056" fill-rule="evenodd"/><path fill="#fff2cc" d="m719.4466 490.8925l-13.032227 -7.0476685l0 -28.190674c0 -3.8923035 5.834717 -7.0476685 13.032227 -7.0476685c7.19751 0 13.032227 3.155365 13.032227 7.0476685l0 28.190674z" fill-rule="evenodd"/><path stroke="#595959" stroke-width="1.0" stroke-linejoin="round" stroke-linecap="butt" d="m719.4466 490.8925l-13.032227 -7.0476685l0 -28.190674c0 -3.8923035 5.834717 -7.0476685 13.032227 -7.0476685c7.19751 0 13.032227 3.155365 13.032227 7.0476685l0 28.190674z" fill-rule="evenodd"/><path fill="#fff2cc" d="m710.9249 439.74017l0 0c0 -7.722046 3.8153076 -13.981995 8.5216675 -13.981995l0 0c2.2600708 0 4.4276123 1.4730835 6.025696 4.095215c1.5981445 2.6221313 2.4959717 6.178528 2.4959717 9.88678l0 0c0 7.722046 -3.8153076 13.981995 -8.5216675 13.981995l0 0c-4.70636 0 -8.5216675 -6.2599487 -8.5216675 -13.981995z" fill-rule="evenodd"/><path stroke="#595959" stroke-width="2.0" stroke-linejoin="round" stroke-linecap="butt" d="m710.9249 439.74017l0 0c0 -7.722046 3.8153076 -13.981995 8.5216675 -13.981995l0 0c2.2600708 0 4.4276123 1.4730835 6.025696 4.095215c1.5981445 2.6221313 2.4959717 6.178528 2.4959717 9.88678l0 0c0 7.722046 -3.8153076 13.981995 -8.5216675 13.981995l0 0c-4.70636 0 -8.5216675 -6.2599487 -8.5216675 -13.981995z" fill-rule="evenodd"/><path fill="#000000" fill-opacity="0.0" d="m708.4193 452.3576l14.368103 20.460724" fill-rule="evenodd"/><path stroke="#595959" stroke-width="2.0" stroke-linejoin="round" stroke-linecap="butt" d="m708.4193 452.3576l14.368103 20.460724" fill-rule="evenodd"/><path fill="#000000" fill-opacity="0.0" d="m730.80804 452.3576l-12.696838 13.638489" fill-rule="evenodd"/><path stroke="#595959" stroke-width="2.0" stroke-linejoin="round" stroke-linecap="butt" d="m730.80804 452.3576l-12.696838 13.638489" fill-rule="evenodd"/><path fill="#d9ead3" d="m743.4466 508.05496l-17.376282 -9.204224l0 -36.816833c0 -5.0833435 7.779602 -9.204224 17.376282 -9.204224c9.59668 0 17.376343 4.12088 17.376343 9.204224l0 36.816833z" fill-rule="evenodd"/><path stroke="#595959" stroke-width="1.0" stroke-linejoin="round" stroke-linecap="butt" d="m743.4466 508.05496l-17.376282 -9.204224l0 -36.816833c0 -5.0833435 7.779602 -9.204224 17.376282 -9.204224c9.59668 0 17.376343 4.12088 17.376343 9.204224l0 36.816833z" fill-rule="evenodd"/><path fill="#d9ead3" d="m732.08435 441.25034l0 0c0 -10.084961 5.087036 -18.260406 11.362244 -18.260406l0 0c3.0134277 0 5.9034424 1.9238586 8.034302 5.348358c2.1307983 3.424469 3.3278809 8.069092 3.3278809 12.912048l0 0c0 10.08493 -5.087036 18.260406 -11.362183 18.260406l0 0c-6.2752075 0 -11.362244 -8.175476 -11.362244 -18.260406z" fill-rule="evenodd"/><path stroke="#595959" stroke-width="2.0" stroke-linejoin="round" stroke-linecap="butt" d="m732.08435 441.25034l0 0c0 -10.084961 5.087036 -18.260406 11.362244 -18.260406l0 0c3.0134277 0 5.9034424 1.9238586 8.034302 5.348358c2.1307983 3.424469 3.3278809 8.069092 3.3278809 12.912048l0 0c0 10.08493 -5.087036 18.260406 -11.362183 18.260406l0 0c-6.2752075 0 -11.362244 -8.175476 -11.362244 -18.260406z" fill-rule="evenodd"/><path fill="#000000" fill-opacity="0.0" d="m728.7435 457.72864l19.15747 26.721588" fill-rule="evenodd"/><path stroke="#595959" stroke-width="2.0" stroke-linejoin="round" stroke-linecap="butt" d="m728.7435 457.72864l19.15747 26.721588" fill-rule="evenodd"/><path fill="#000000" fill-opacity="0.0" d="m758.5952 457.72864l-16.929138 17.811768" fill-rule="evenodd"/><path stroke="#595959" stroke-width="2.0" stroke-linejoin="round" stroke-linecap="butt" d="m758.5952 457.72864l-16.929138 17.811768" fill-rule="evenodd"/><path fill="#b4a7d6" d="m892.51154 490.22012l-13.032227 -6.9022217l0 -27.608978c0 -3.8119812 5.834778 -6.9022217 13.032227 -6.9022217c7.19751 0 13.032288 3.0902405 13.032288 6.9022217l0 27.608978z" fill-rule="evenodd"/><path stroke="#595959" stroke-width="1.0" stroke-linejoin="round" stroke-linecap="butt" d="m892.51154 490.22012l-13.032227 -6.9022217l0 -27.608978c0 -3.8119812 5.834778 -6.9022217 13.032227 -6.9022217c7.19751 0 13.032288 3.0902405 13.032288 6.9022217l0 27.608978z" fill-rule="evenodd"/><path fill="#b4a7d6" d="m883.98987 440.12335l0 0c0 -7.5627136 3.8153076 -13.693481 8.5216675 -13.693481l0 0c2.2600708 0 4.4276123 1.442688 6.025757 4.0107117c1.5980835 2.5680237 2.4959106 6.0510254 2.4959106 9.68277l0 0c0 7.562683 -3.8152466 13.693481 -8.5216675 13.693481l0 0c-4.70636 0 -8.5216675 -6.1307983 -8.5216675 -13.693481z" fill-rule="evenodd"/><path stroke="#595959" stroke-width="2.0" stroke-linejoin="round" stroke-linecap="butt" d="m883.98987 440.12335l0 0c0 -7.5627136 3.8153076 -13.693481 8.5216675 -13.693481l0 0c2.2600708 0 4.4276123 1.442688 6.025757 4.0107117c1.5980835 2.5680237 2.4959106 6.0510254 2.4959106 9.68277l0 0c0 7.562683 -3.8152466 13.693481 -8.5216675 13.693481l0 0c-4.70636 0 -8.5216675 -6.1307983 -8.5216675 -13.693481z" fill-rule="evenodd"/><path fill="#000000" fill-opacity="0.0" d="m881.48425 452.48044l14.368103 20.038513" fill-rule="evenodd"/><path stroke="#595959" stroke-width="2.0" stroke-linejoin="round" stroke-linecap="butt" d="m881.48425 452.48044l14.368103 20.038513" fill-rule="evenodd"/><path fill="#000000" fill-opacity="0.0" d="m903.87305 452.48044l-12.696838 13.357025" fill-rule="evenodd"/><path stroke="#595959" stroke-width="2.0" stroke-linejoin="round" stroke-linecap="butt" d="m903.87305 452.48044l-12.696838 13.357025" fill-rule="evenodd"/><path fill="#d5a6bd" d="m844.51154 490.89215l-13.032227 -7.0476685l0 -28.190674c0 -3.8923035 5.834778 -7.0476685 13.032227 -7.0476685c7.19751 0 13.032288 3.155365 13.032288 7.0476685l0 28.190674z" fill-rule="evenodd"/><path stroke="#595959" stroke-width="1.0" stroke-linejoin="round" stroke-linecap="butt" d="m844.51154 490.89215l-13.032227 -7.0476685l0 -28.190674c0 -3.8923035 5.834778 -7.0476685 13.032227 -7.0476685c7.19751 0 13.032288 3.155365 13.032288 7.0476685l0 28.190674z" fill-rule="evenodd"/><path fill="#d5a6bd" d="m835.98987 439.73984l0 0c0 -7.722046 3.8153076 -13.981995 8.5216675 -13.981995l0 0c2.2600708 0 4.4276123 1.473114 6.025757 4.0952454c1.5980835 2.6221313 2.4959106 6.1784973 2.4959106 9.886749l0 0c0 7.722046 -3.8152466 13.981995 -8.5216675 13.981995l0 0c-4.70636 0 -8.5216675 -6.2599487 -8.5216675 -13.981995z" fill-rule="evenodd"/><path stroke="#595959" stroke-width="2.0" stroke-linejoin="round" stroke-linecap="butt" d="m835.98987 439.73984l0 0c0 -7.722046 3.8153076 -13.981995 8.5216675 -13.981995l0 0c2.2600708 0 4.4276123 1.473114 6.025757 4.0952454c1.5980835 2.6221313 2.4959106 6.1784973 2.4959106 9.886749l0 0c0 7.722046 -3.8152466 13.981995 -8.5216675 13.981995l0 0c-4.70636 0 -8.5216675 -6.2599487 -8.5216675 -13.981995z" fill-rule="evenodd"/><path fill="#000000" fill-opacity="0.0" d="m833.48425 452.35727l14.368103 20.460724" fill-rule="evenodd"/><path stroke="#595959" stroke-width="2.0" stroke-linejoin="round" stroke-linecap="butt" d="m833.48425 452.35727l14.368103 20.460724" fill-rule="evenodd"/><path fill="#000000" fill-opacity="0.0" d="m855.87305 452.35727l-12.696838 13.638489" fill-rule="evenodd"/><path stroke="#595959" stroke-width="2.0" stroke-linejoin="round" stroke-linecap="butt" d="m855.87305 452.35727l-12.696838 13.638489" fill-rule="evenodd"/><path fill="#a4c2f4" d="m868.51154 508.05463l-17.376282 -9.204193l0 -36.816864c0 -5.0833435 7.779663 -9.204224 17.376282 -9.204224c9.59668 0 17.376343 4.12088 17.376343 9.204224l0 36.816864z" fill-rule="evenodd"/><path stroke="#595959" stroke-width="1.0" stroke-linejoin="round" stroke-linecap="butt" d="m868.51154 508.05463l-17.376282 -9.204193l0 -36.816864c0 -5.0833435 7.779663 -9.204224 17.376282 -9.204224c9.59668 0 17.376343 4.12088 17.376343 9.204224l0 36.816864z" fill-rule="evenodd"/><path fill="#a4c2f4" d="m857.14935 441.25l0 0c0 -10.08493 5.087036 -18.260406 11.362183 -18.260406l0 0c3.0134277 0 5.9035034 1.9238586 8.034302 5.348358c2.1307983 3.424469 3.327942 8.069092 3.327942 12.912048l0 0c0 10.084961 -5.087036 18.260406 -11.362244 18.260406l0 0c-6.2751465 0 -11.362183 -8.175446 -11.362183 -18.260406z" fill-rule="evenodd"/><path stroke="#595959" stroke-width="2.0" stroke-linejoin="round" stroke-linecap="butt" d="m857.14935 441.25l0 0c0 -10.08493 5.087036 -18.260406 11.362183 -18.260406l0 0c3.0134277 0 5.9035034 1.9238586 8.034302 5.348358c2.1307983 3.424469 3.327942 8.069092 3.327942 12.912048l0 0c0 10.084961 -5.087036 18.260406 -11.362244 18.260406l0 0c-6.2751465 0 -11.362183 -8.175446 -11.362183 -18.260406z" fill-rule="evenodd"/><path fill="#000000" fill-opacity="0.0" d="m853.8085 457.72833l19.15747 26.721588" fill-rule="evenodd"/><path stroke="#595959" stroke-width="2.0" stroke-linejoin="round" stroke-linecap="butt" d="m853.8085 457.72833l19.15747 26.721588" fill-rule="evenodd"/><path fill="#000000" fill-opacity="0.0" d="m883.6602 457.72833l-16.929138 17.811768" fill-rule="evenodd"/><path stroke="#595959" stroke-width="2.0" stroke-linejoin="round" stroke-linecap="butt" d="m883.6602 457.72833l-16.929138 17.811768" fill-rule="evenodd"/><path fill="#d0e0e3" d="m50.49344 423.57376l68.43465 0l0 76.58679l-11.406006 11.406006l-57.02864 0z" fill-rule="evenodd"/><path fill="#a6b3b5" d="m107.52208 511.56656l2.2812042 -9.124817l9.124802 -2.281189z" fill-rule="evenodd"/><path fill="#000000" fill-opacity="0.0" d="m107.52208 511.56656l2.2812042 -9.124817l9.124802 -2.281189l-11.406006 11.406006l-57.02864 0l0 -87.9928l68.43465 0l0 76.58679" fill-rule="evenodd"/><path stroke="#595959" stroke-width="1.0" stroke-linejoin="round" stroke-linecap="butt" d="m107.52208 511.56656l2.2812042 -9.124817l9.124802 -2.281189l-11.406006 11.406006l-57.02864 0l0 -87.9928l68.43465 0l0 76.58679" fill-rule="evenodd"/><path fill="#000000" fill-opacity="0.0" d="m48.90551 419.47705l55.60945 0l0 26.964722l-55.60945 0z" fill-rule="evenodd"/><path fill="#595959" d="m58.483635 440.1027l2.25 -0.21875q0.203125 1.140625 0.828125 1.671875q0.625 0.53125 1.671875 0.53125q1.125 0 1.6875 -0.46875q0.5625 -0.484375 0.5625 -1.109375q0 -0.40625 -0.234375 -0.6875q-0.234375 -0.296875 -0.828125 -0.5q-0.40625 -0.140625 -1.859375 -0.5q-1.859375 -0.46875 -2.609375 -1.140625q-1.046875 -0.9375 -1.046875 -2.296875q0 -0.875 0.484375 -1.640625q0.5 -0.765625 1.4375 -1.15625q0.9375 -0.40625 2.25 -0.40625q2.15625 0 3.25 0.953125q1.09375 0.9375 1.140625 2.515625l-2.3125 0.109375q-0.140625 -0.890625 -0.640625 -1.265625q-0.484375 -0.390625 -1.453125 -0.390625q-1.015625 0 -1.578125 0.40625q-0.375 0.265625 -0.375 0.71875q0 0.40625 0.34375 0.6875q0.4375 0.375 2.125 0.78125q1.6875 0.390625 2.5 0.8125q0.8125 0.421875 1.265625 1.171875q0.453125 0.734375 0.453125 1.8125q0 0.984375 -0.546875 1.84375q-0.546875 0.859375 -1.546875 1.28125q-1.0 0.421875 -2.484375 0.421875q-2.171875 0 -3.34375 -1.0q-1.15625 -1.015625 -1.390625 -2.9375zm11.234375 3.734375l0 -11.453125l3.453125 0l2.078125 7.8125l2.0625 -7.8125l3.46875 0l0 11.453125l-2.15625 0l0 -9.015625l-2.265625 9.015625l-2.234375 0l-2.265625 -9.015625l0 9.015625l-2.140625 0zm13.359375 0l0 -11.453125l3.703125 0q2.109375 0 2.75 0.171875q0.984375 0.25 1.640625 1.125q0.671875 0.859375 0.671875 2.21875q0 1.0625 -0.390625 1.78125q-0.375 0.71875 -0.96875 1.125q-0.578125 0.40625 -1.1875 0.546875q-0.828125 0.15625 -2.40625 0.15625l-1.5 0l0 4.328125l-2.3125 0zm2.3125 -9.515625l0 3.25l1.265625 0q1.359375 0 1.8125 -0.171875q0.46875 -0.1875 0.734375 -0.5625q0.265625 -0.390625 0.265625 -0.90625q0 -0.625 -0.375 -1.03125q-0.359375 -0.40625 -0.921875 -0.5q-0.421875 -0.078125 -1.671875 -0.078125l-1.109375 0z" fill-rule="nonzero"/><path fill="#000000" fill-opacity="0.0" d="m61.176903 458.34467l47.06772 0.012542725" fill-rule="evenodd"/><path stroke="#595959" stroke-width="4.0" stroke-linejoin="round" stroke-linecap="butt" d="m61.176903 458.34467l47.06772 0.012542725" fill-rule="evenodd"/><path fill="#000000" fill-opacity="0.0" d="m61.176903 464.71585l47.06772 0.012542725" fill-rule="evenodd"/><path stroke="#595959" stroke-width="4.0" stroke-linejoin="round" stroke-linecap="butt" d="m61.176903 464.71585l47.06772 0.012542725" fill-rule="evenodd"/><path fill="#000000" fill-opacity="0.0" d="m61.176903 471.08707l47.06772 0.012542725" fill-rule="evenodd"/><path stroke="#595959" stroke-width="4.0" stroke-linejoin="round" stroke-linecap="butt" d="m61.176903 471.08707l47.06772 0.012542725" fill-rule="evenodd"/><path fill="#000000" fill-opacity="0.0" d="m61.176903 477.45825l47.06772 0.012542725" fill-rule="evenodd"/><path stroke="#595959" stroke-width="4.0" stroke-linejoin="round" stroke-linecap="butt" d="m61.176903 477.45825l47.06772 0.012542725" fill-rule="evenodd"/><path fill="#000000" fill-opacity="0.0" d="m61.176903 490.20065l37.85827 0.06271362" fill-rule="evenodd"/><path stroke="#595959" stroke-width="4.0" stroke-linejoin="round" stroke-linecap="butt" d="m61.176903 490.20065l37.85827 0.06271362" fill-rule="evenodd"/><path fill="#cc0000" d="m82.60088 341.2861l0 13.811005l538.1918 0l0 27.62204l-538.1918 0l0 13.811035l-8.926346 -27.62204z" fill-rule="evenodd"/><path fill="#6aa84f" d="m575.7429 264.95013l86.13013 0c15.625122 0 28.291748 12.6666565 28.291748 28.291748l0 17.487762l9.042664 0l-19.275574 15.259857l-19.275635 -15.259857l9.042664 0l0 -17.487762l0 0c0 -4.322113 -3.5037842 -7.8258667 -7.8258667 -7.8258667l-86.13013 0z" fill-rule="evenodd"/><path fill="#000000" fill-opacity="0.0" d="m369.31628 472.43045l86.70865 0l0 58.17325l-86.70865 0z" fill-rule="evenodd"/><path fill="#6aa84f" d="m386.66003 512.15045l0 -9.640625l-8.390625 -13.265625l5.421875 0l5.390625 9.0625l5.28125 -9.0625l5.328125 0l-8.421875 13.296875l0 9.609375l-4.609375 0zm15.328125 0l0 -22.90625l16.984375 0l0 3.875l-12.359375 0l0 5.078125l11.5 0l0 3.859375l-11.5 0l0 6.234375l12.796875 0l0 3.859375l-17.421875 0zm20.171875 -7.453125l4.5 -0.4375q0.40625 2.265625 1.640625 3.328125q1.25 1.0625 3.359375 1.0625q2.234375 0 3.359375 -0.9375q1.140625 -0.953125 1.140625 -2.21875q0 -0.8125 -0.484375 -1.375q-0.46875 -0.578125 -1.65625 -1.0q-0.8125 -0.28125 -3.703125 -1.0q-3.71875 -0.921875 -5.21875 -2.265625q-2.109375 -1.890625 -2.109375 -4.609375q0 -1.75 0.984375 -3.265625q1.0 -1.53125 2.859375 -2.328125q1.875 -0.796875 4.515625 -0.796875q4.3125 0 6.484375 1.890625q2.1875 1.890625 2.296875 5.046875l-4.625 0.203125q-0.296875 -1.765625 -1.28125 -2.53125q-0.96875 -0.78125 -2.921875 -0.78125q-2.015625 0 -3.15625 0.828125q-0.734375 0.53125 -0.734375 1.421875q0 0.8125 0.6875 1.390625q0.875 0.734375 4.25 1.53125q3.375 0.796875 4.984375 1.65625q1.625 0.84375 2.53125 2.328125q0.921875 1.46875 0.921875 3.640625q0 1.96875 -1.09375 3.6875q-1.09375 1.71875 -3.09375 2.5625q-2.0 0.828125 -4.984375 0.828125q-4.34375 0 -6.671875 -2.0q-2.328125 -2.015625 -2.78125 -5.859375z" fill-rule="nonzero"/><path fill="#000000" fill-opacity="0.0" d="m3.6587927 231.08398l70.01575 0l0 58.17325l-70.01575 0z" fill-rule="evenodd"/><path fill="#cc0000" d="m15.0337925 270.804l0 -22.90625l4.5 0l9.375 15.296875l0 -15.296875l4.296877 0l0 22.90625l-4.640627 0l-9.234375 -14.9375l0 14.9375l-4.296875 0zm22.125002 -11.3125q0 -3.5 1.046875 -5.875q0.78125 -1.75 2.125 -3.140625q1.359375 -1.390625 2.96875 -2.0625q2.140625 -0.90625 4.9375 -0.90625q5.0625 0 8.09375 3.140625q3.046875 3.140625 3.046875 8.734375q0 5.546875 -3.015625 8.6875q-3.015625 3.125 -8.0625 3.125q-5.109375 0 -8.125 -3.109375q-3.015625 -3.125 -3.015625 -8.59375zm4.765625 -0.15625q0 3.890625 1.796875 5.90625q1.796875 2.0 4.5625 2.0q2.765625 0 4.53125 -1.984375q1.78125 -2.0 1.78125 -5.984375q0 -3.9375 -1.734375 -5.875q-1.71875 -1.9375 -4.578125 -1.9375q-2.859375 0 -4.609375 1.96875q-1.75 1.953125 -1.75 5.90625z" fill-rule="nonzero"/><path fill="#b6d7a8" d="m178.81776 128.01631l0 0c0 5.477234 -11.88414 10.260239 -28.889084 11.626953l0 -4.802704l-9.605408 9.985199l9.605408 9.225601l0 -4.8026886c17.004944 -1.3667297 28.889084 -6.149719 28.889084 -11.626968z" fill-rule="evenodd"/><path fill="#91ab86" d="m140.32327 125.61496l0 0c15.306259 0 29.15828 2.8284607 35.280777 7.204056l0 0c5.1939545 -3.711975 4.0381317 -7.990532 -3.0739746 -11.379074c-7.1121063 -3.3885498 -19.221924 -5.4303894 -32.206802 -5.4303894z" fill-rule="evenodd"/><path fill="#000000" fill-opacity="0.0" d="m178.81776 128.01631l0 0c0 5.477234 -11.88414 10.260239 -28.889084 11.626953l0 -4.802704l-9.605408 9.985199l9.605408 9.225601l0 -4.8026886c17.004944 -1.3667297 28.889084 -6.149719 28.889084 -11.626968l0 -9.605392l0 0c0 -6.6311493 -17.234573 -12.00676 -38.49449 -12.00676l0 9.605408l0 0c15.306259 0 29.15828 2.8284607 35.280777 7.204056" fill-rule="evenodd"/><path stroke="#595959" stroke-width="1.0" stroke-linejoin="round" stroke-linecap="butt" d="m178.81776 128.01631l0 0c0 5.477234 -11.88414 10.260239 -28.889084 11.626953l0 -4.802704l-9.605408 9.985199l9.605408 9.225601l0 -4.8026886c17.004944 -1.3667297 28.889084 -6.149719 28.889084 -11.626968l0 -9.605392l0 0c0 -6.6311493 -17.234573 -12.00676 -38.49449 -12.00676l0 9.605408l0 0c15.306259 0 29.15828 2.8284607 35.280777 7.204056" fill-rule="evenodd"/><path fill="#fff2cc" d="m86.49217 161.663l50.125977 0l0 -49.282646l-8.354492 -8.3545l-41.771484 0z" fill-rule="evenodd"/><path fill="#cbc1a3" d="m128.26366 104.02585l1.6708984 6.6836014l6.6835938 1.6708984z" fill-rule="evenodd"/><path fill="#000000" fill-opacity="0.0" d="m128.26366 104.02585l1.6708984 6.6836014l6.6835938 1.6708984l-8.354492 -8.3545l-41.771484 0l0 57.637146l50.125977 0l0 -49.282646" fill-rule="evenodd"/><path stroke="#595959" stroke-width="1.0" stroke-linejoin="round" stroke-linecap="butt" d="m128.26366 104.02585l1.6708984 6.6836014l6.6835938 1.6708984l-8.354492 -8.3545l-41.771484 0l0 57.637146l50.125977 0l0 -49.282646" fill-rule="evenodd"/><path fill="#bf9000" d="m95.47758 135.11235l0 0c3.562317 -3.556839 9.3400345 -3.556839 12.904892 0l0 0c1.7119064 1.7080383 2.6741333 4.024658 2.6749954 6.440201c8.621216E-4 2.4155426 -0.95970154 4.7321625 -2.6703873 6.440216l0 0c-3.562317 3.5568237 -9.340027 3.5568237 -12.904892 0l0 0c-3.5648575 -3.556839 -3.5669174 -9.323593 -0.0046081543 -12.880417zm3.2262268 3.2189484l0 0c-1.7811584 1.7784119 -1.7796097 4.6623077 0.0034561157 6.4413605c1.7830658 1.7790527 4.6724396 1.7795715 6.453598 0.0011444092c1.7811584 -1.7784119 1.7796097 -4.6623077 -0.0034561157 -6.4413605l0 0c-1.7830658 -1.7790375 -4.672447 -1.7795563 -6.453598 -0.0011444092z" fill-rule="evenodd"/><path fill="#bf9000" d="m108.69557 131.82812l2.9762802 2.9752197l-1.9903259 1.9819641l-2.9762802 -2.975235z" fill-rule="evenodd"/><path fill="#bf9000" d="m94.172745 146.32336l2.9762726 2.975235l-1.9903259 1.9819489l-2.9762802 -2.975235z" fill-rule="evenodd"/><path fill="#bf9000" d="m111.67482 148.3085l-2.9808884 2.970642l-1.9857254 -1.986557l2.9808884 -2.970642z" fill-rule="evenodd"/><path fill="#bf9000" d="m97.14878 133.80997l-2.9808884 2.9706268l-1.9857254 -1.986557l2.9808884 -2.9706268z" fill-rule="evenodd"/><path fill="#bf9000" d="m99.82132 129.84018l4.2110214 0l0 2.8050995l-4.2110214 0z" fill-rule="evenodd"/><path fill="#bf9000" d="m113.59381 139.45218l0 4.2030334l-2.8104172 0l0 -4.2030334z" fill-rule="evenodd"/><path fill="#bf9000" d="m93.04092 139.45045l0 4.2030334l-2.8104248 0l0 -4.2030334z" fill-rule="evenodd"/><path fill="#bf9000" d="m99.82699 150.42363l4.2110214 0l0 2.8050842l-4.2110214 0z" fill-rule="evenodd"/><path fill="#bf9000" d="m113.77564 126.08174l0 0c2.13768 -2.1340942 5.604782 -2.1340942 7.7439957 0l0 0c1.0272827 1.0248337 1.6046982 2.414795 1.605217 3.8641205c5.187988E-4 1.4493408 -0.57590485 2.8392944 -1.6024551 3.8641357l0 0c-2.13768 2.1340942 -5.604782 2.1340942 -7.7439957 0l0 0c-2.139206 -2.1341095 -2.140442 -5.594162 -0.0027618408 -7.728256zm1.935997 1.931366l0 0c-1.06884 1.0670471 -1.0679092 2.7973938 0.0020751953 3.8648224c1.0699844 1.0674286 2.8038483 1.0677338 3.8726883 6.866455E-4l0 0c1.06884 -1.0670471 1.0679092 -2.7973785 -0.0020751953 -3.8648071l0 0c-1.0699844 -1.0674362 -2.8038483 -1.0677414 -3.8726883 -7.019043E-4z" fill-rule="evenodd"/><path fill="#bf9000" d="m121.70753 124.111206l1.7860107 1.785141l-1.1943665 1.1891708l-1.7860107 -1.785141z" fill-rule="evenodd"/><path fill="#bf9000" d="m112.99263 132.80835l1.7860107 1.785141l-1.1943588 1.1891785l-1.7860107 -1.785141z" fill-rule="evenodd"/><path fill="#bf9000" d="m123.495316 133.99944l-1.7887802 1.7823792l-1.191597 -1.191925l1.7887802 -1.7823792z" fill-rule="evenodd"/><path fill="#bf9000" d="m114.7785 125.300316l-1.7887802 1.7823792l-1.191597 -1.1919327l1.7887802 -1.7823792z" fill-rule="evenodd"/><path fill="#bf9000" d="m116.38224 122.91844l2.5269623 0l0 1.6830521l-2.5269623 0z" fill-rule="evenodd"/><path fill="#bf9000" d="m124.646866 128.68564l0 2.52182l-1.6864777 0l0 -2.52182z" fill-rule="evenodd"/><path fill="#bf9000" d="m112.313446 128.68462l0 2.52182l-1.6864853 0l0 -2.52182z" fill-rule="evenodd"/><path fill="#bf9000" d="m116.38564 135.26851l2.5269547 0l0 1.6830597l-2.5269547 0z" fill-rule="evenodd"/><path fill="#bf9000" d="m123.70901 137.68712l0 0c2.13768 -2.1341095 5.6047897 -2.1341095 7.7439957 0l0 0c1.0272827 1.024826 1.6046906 2.414795 1.6052094 3.8641205c5.187988E-4 1.4493256 -0.5758972 2.8392944 -1.6024475 3.8641205l0 0c-2.13768 2.1341095 -5.604782 2.1341095 -7.743988 0l0 0c-2.1392136 -2.1340942 -2.1404495 -5.5941467 -0.0027694702 -7.728241zm1.935997 1.931366l0 0c-1.06884 1.0670471 -1.0679092 2.7973938 0.0020751953 3.8648224c1.0699844 1.0674286 2.8038483 1.0677338 3.872696 6.866455E-4l0 0c1.0688324 -1.0670471 1.0679016 -2.7973938 -0.0020751953 -3.8648224l0 0c-1.0699921 -1.0674286 -2.803856 -1.0677338 -3.872696 -6.866455E-4z" fill-rule="evenodd"/><path fill="#bf9000" d="m131.64088 135.71658l1.7860107 1.785141l-1.1943512 1.1891632l-1.7860107 -1.785141z" fill-rule="evenodd"/><path fill="#bf9000" d="m122.925995 144.41373l1.7860184 1.785141l-1.1943665 1.1891632l-1.7860107 -1.785141z" fill-rule="evenodd"/><path fill="#bf9000" d="m133.42868 145.60481l-1.7887726 1.7823792l-1.1916046 -1.191925l1.7887878 -1.7823944z" fill-rule="evenodd"/><path fill="#bf9000" d="m124.71187 136.90569l-1.7887802 1.7823792l-1.191597 -1.191925l1.7887802 -1.7823944z" fill-rule="evenodd"/><path fill="#bf9000" d="m126.31561 134.52382l2.526947 0l0 1.6830444l-2.526947 0z" fill-rule="evenodd"/><path fill="#bf9000" d="m134.58023 140.29102l0 2.52182l-1.6864777 0l0 -2.52182z" fill-rule="evenodd"/><path fill="#bf9000" d="m122.24681 140.28998l0 2.52182l-1.6864853 0l0 -2.52182z" fill-rule="evenodd"/><path fill="#bf9000" d="m126.31901 146.87389l2.5269547 0l0 1.6830444l-2.5269547 0z" fill-rule="evenodd"/><path fill="#f9cb9c" d="m74.18568 163.98627l-15.638683 -8.280472l0 -33.12191c0 -4.573181 7.0016747 -8.280472 15.638683 -8.280472c8.637001 0 15.6386795 3.7072906 15.6386795 8.280472l0 33.12191z" fill-rule="evenodd"/><path stroke="#595959" stroke-width="1.0" stroke-linejoin="round" stroke-linecap="butt" d="m74.18568 163.98627l-15.638683 -8.280472l0 -33.12191c0 -4.573181 7.0016747 -8.280472 15.638683 -8.280472c8.637001 0 15.6386795 3.7072906 15.6386795 8.280472l0 33.12191z" fill-rule="evenodd"/><path fill="#f9cb9c" d="m63.959675 103.88616l0 0c0 -9.072823 4.578327 -16.427795 10.2259865 -16.427795l0 0c2.7120972 0 5.313118 1.7307816 7.230858 4.8115845c1.9177475 3.0808105 2.9951248 7.259285 2.9951248 11.616211l0 0c0 9.072815 -4.578331 16.427788 -10.225983 16.427788l0 0c-5.6476593 0 -10.2259865 -7.354973 -10.2259865 -16.427788z" fill-rule="evenodd"/><path stroke="#595959" stroke-width="2.0" stroke-linejoin="round" stroke-linecap="butt" d="m63.959675 103.88616l0 0c0 -9.072823 4.578327 -16.427795 10.2259865 -16.427795l0 0c2.7120972 0 5.313118 1.7307816 7.230858 4.8115845c1.9177475 3.0808105 2.9951248 7.259285 2.9951248 11.616211l0 0c0 9.072815 -4.578331 16.427788 -10.225983 16.427788l0 0c-5.6476593 0 -10.2259865 -7.354973 -10.2259865 -16.427788z" fill-rule="evenodd"/><path fill="#000000" fill-opacity="0.0" d="m60.9529 118.71071l17.241734 24.03981" fill-rule="evenodd"/><path stroke="#595959" stroke-width="2.0" stroke-linejoin="round" stroke-linecap="butt" d="m60.9529 118.71071l17.241734 24.03981" fill-rule="evenodd"/><path fill="#000000" fill-opacity="0.0" d="m87.819435 118.71071l-15.236221 16.024185" fill-rule="evenodd"/><path stroke="#595959" stroke-width="2.0" stroke-linejoin="round" stroke-linecap="butt" d="m87.819435 118.71071l-15.236221 16.024185" fill-rule="evenodd"/></g></svg>